<svg width="1728" height="1117" viewBox="0 0 1728 1117" fill="none" xmlns="http://www.w3.org/2000/svg">
<g clip-path="url(#clip0_28_113)">
<rect width="1728" height="1117" fill="#242424"/>
<path d="M216.501 9.79332C145.947 -15.886 100.057 6.63814 73.3323 80.0647C46.6042 153.5 67.2826 200.243 137.836 225.923C208.389 251.602 254.276 229.086 281.004 155.651C307.729 82.2246 287.054 35.4727 216.501 9.79332Z" fill="#4A4A4A"/>
<path d="M233.266 108.433C225.18 115.356 215.805 119.683 206.199 121.533C202.892 122.171 199.553 122.494 196.23 122.5C189.681 122.519 182.4 119.812 179.404 112.226C175.695 118.103 173.595 124.023 174.377 128.97C174.549 130.077 174.859 131.13 175.307 132.129C176.314 134.328 178.146 136.514 180.086 137.676C181.989 138.815 183.51 139.549 185.305 140.032C179.881 153.982 170.286 165.027 157.443 171.985C155.621 167.59 154.182 162.822 153.423 157.836C151.836 147.307 153.092 136.863 156.556 127.394C157.741 124.14 159.22 121.004 160.948 118.034C164.351 112.17 170.433 106.967 178.366 107.908C175.364 101.792 171.492 97.0879 166.924 95.4252C165.909 95.0557 164.856 94.8149 163.785 94.7481C161.416 94.5885 158.617 95.1841 156.629 96.3596C154.671 97.5272 153.257 98.5316 151.903 99.919C143.032 88.4195 138.779 74.5842 139.64 59.809C144.28 60.2728 149.043 61.2752 153.623 62.9802C163.296 66.5863 171.419 72.6955 177.571 80.3093C179.683 82.9296 181.551 85.7458 183.145 88.7096C186.283 94.5521 187.488 102.473 182.554 109.11C189.254 109.354 195.234 108.141 199.02 104.857C199.863 104.119 200.601 103.296 201.22 102.372C202.594 100.327 203.553 97.5426 203.601 95.2051C203.65 92.8873 203.539 91.1376 203.073 89.2588C217.385 86.8142 231.254 89.6211 243.229 97.4552C240.422 101.381 237.096 105.155 233.266 108.433ZM266.745 92.1317C247.853 72.2178 220.685 64.6369 193.924 71.7043C192.931 70.2981 191.912 68.9112 190.862 67.6082L190.784 67.5227C182.359 57.0781 171.332 49.0954 158.739 44.512C148.088 40.6353 136.431 39.298 125.02 40.6428L124.171 40.7423L123.934 41.5959C116.232 68.8467 122.829 97.0476 141.522 117.259C140.802 118.887 140.125 120.521 139.53 122.156L139.488 122.273C134.747 135.247 133.311 149.271 135.474 162.906C137.305 174.446 141.746 185.558 148.329 195.047L148.818 195.757L149.642 195.525C176.234 188.168 196.784 167.531 204.829 140.263C206.551 140.044 208.262 139.803 209.931 139.48L210.041 139.454C223.217 136.919 235.681 130.877 246.103 121.823C254.923 114.16 262.139 104.385 266.975 93.5544L267.331 92.7532L266.745 92.1317Z" fill="#242424"/>
<path d="M477.569 592.306C445.262 580.547 424.248 590.861 412.011 624.484C399.772 658.111 409.241 679.515 441.548 691.274C473.855 703.033 494.867 692.723 507.106 659.096C519.344 625.473 509.876 604.065 477.569 592.306Z" fill="#4A4A4A"/>
<path d="M485.246 637.474C481.544 640.645 477.25 642.626 472.852 643.473C471.337 643.765 469.809 643.913 468.287 643.916C465.288 643.924 461.954 642.685 460.582 639.211C458.884 641.902 457.922 644.613 458.28 646.878C458.359 647.385 458.501 647.868 458.706 648.325C459.167 649.332 460.006 650.333 460.894 650.865C461.766 651.387 462.462 651.723 463.284 651.944C460.801 658.331 456.407 663.389 450.526 666.575C449.692 664.563 449.033 662.379 448.685 660.096C447.958 655.275 448.533 650.492 450.12 646.156C450.662 644.667 451.34 643.23 452.131 641.871C453.689 639.185 456.474 636.803 460.107 637.234C458.732 634.433 456.959 632.279 454.867 631.518C454.402 631.349 453.92 631.238 453.43 631.208C452.345 631.135 451.064 631.407 450.153 631.946C449.257 632.48 448.609 632.94 447.989 633.576C443.927 628.31 441.98 621.974 442.374 615.209C444.499 615.421 446.68 615.88 448.777 616.661C453.206 618.312 456.926 621.11 459.743 624.596C460.71 625.796 461.565 627.085 462.295 628.443C463.732 631.118 464.284 634.745 462.025 637.784C465.092 637.896 467.831 637.34 469.565 635.837C469.951 635.499 470.289 635.122 470.572 634.699C471.201 633.762 471.64 632.487 471.662 631.417C471.685 630.356 471.634 629.554 471.421 628.694C477.974 627.575 484.325 628.86 489.808 632.447C488.523 634.245 487 635.973 485.246 637.474ZM500.577 630.01C491.926 620.891 479.485 617.419 467.231 620.656C466.776 620.012 466.31 619.377 465.829 618.78L465.793 618.741C461.935 613.958 456.886 610.303 451.12 608.204C446.242 606.429 440.904 605.816 435.679 606.432L435.29 606.478L435.182 606.869C431.655 619.347 434.676 632.261 443.236 641.516C442.906 642.261 442.596 643.009 442.324 643.758L442.304 643.812C440.133 649.753 439.475 656.175 440.466 662.418C441.305 667.702 443.338 672.79 446.352 677.136L446.577 677.461L446.954 677.355C459.131 673.986 468.541 664.536 472.224 652.049C473.013 651.949 473.797 651.839 474.561 651.691L474.611 651.679C480.645 650.518 486.352 647.752 491.124 643.605C495.163 640.097 498.468 635.621 500.682 630.661L500.845 630.294L500.577 630.01Z" fill="#242424"/>
<g clip-path="url(#clip1_28_113)">
<mask id="mask0_28_113" style="mask-type:luminance" maskUnits="userSpaceOnUse" x="0" y="251" width="275" height="197">
<path d="M40.7004 251L274.684 336.163L233.983 447.986L-1.10269e-06 362.823L40.7004 251ZM252.484 397.158L256.184 386.992L83.2394 324.045L101.74 273.216L91.5664 269.514L50.866 381.337L61.0392 385.04L79.5393 334.211L252.484 397.158Z" fill="white"/>
</mask>
<g mask="url(#mask0_28_113)">
<path d="M132.255 347.642C136.28 336.584 136.933 324.579 134.132 313.147C131.33 301.714 125.2 291.368 116.516 283.415C107.832 275.461 96.9851 270.259 85.3461 268.466C73.7072 266.673 61.7992 268.37 51.1281 273.341C40.4569 278.312 31.5019 286.335 25.3954 296.395C19.2889 306.455 16.3052 318.101 16.8216 329.858C17.3381 341.616 21.3314 352.959 28.2966 362.451C35.2618 371.944 44.8862 379.161 55.9526 383.189L111.905 403.554L132.255 347.642ZM142.429 351.345C137.031 366.173 137.75 382.54 144.427 396.845C151.104 411.15 163.191 422.22 178.031 427.621C192.87 433.023 209.246 432.312 223.556 425.646C237.865 418.979 248.936 406.903 254.334 392.075C259.731 377.246 259.012 360.879 252.335 346.574C245.659 332.27 233.571 321.199 218.731 315.798C203.892 310.397 187.516 311.108 173.206 317.774C158.897 324.44 147.826 336.516 142.429 351.345Z" fill="#4A4A4A"/>
</g>
</g>
<g clip-path="url(#clip2_28_113)">
<path d="M546.261 17.9888L660.729 59.6518L652.976 11.8909L674.662 19.7839L674.001 -20.1298L847.566 43.0426L821.404 73.1935L843.09 81.0865L806.451 112.69L920.919 154.353L864.972 190.443L760.504 152.42C753.998 156.806 745.696 159.437 736.49 160.028C727.284 160.62 717.523 159.15 708.255 155.777C698.988 152.404 690.566 147.255 683.894 140.885C677.222 134.514 672.553 127.163 670.388 119.621L565.92 81.5972L546.261 17.9888Z" fill="black" stroke="#242424" stroke-width="36"/>
<path d="M546.261 17.9888L660.729 59.6518L652.976 11.8909L674.662 19.7839L674.001 -20.1298L847.566 43.0426L821.404 73.1935L843.09 81.0865L806.451 112.69L920.919 154.353L864.972 190.443L760.504 152.42C753.998 156.806 745.696 159.437 736.49 160.028C727.284 160.62 717.523 159.15 708.255 155.777C698.988 152.404 690.566 147.255 683.894 140.885C677.222 134.514 672.553 127.163 670.388 119.621L565.92 81.5972L546.261 17.9888Z" fill="#242424" stroke="#4A4A4A" stroke-width="12"/>
<path d="M561.325 33.8252L665.205 71.6345L671.324 109.608L573.757 74.0964L561.325 33.8252ZM795.32 118.992L899.2 156.802L863.79 179.66L766.224 144.148L795.32 118.992ZM683.928 -6.16315L830.984 47.3607L754.46 135.716C749.255 141.734 742.359 146.031 734.682 148.039C727.005 150.047 718.909 149.671 711.464 146.961C704.019 144.251 697.576 139.335 692.986 132.863C688.395 126.39 685.874 118.666 685.755 110.71L683.928 -6.16315Z" fill="#4A4A4A"/>
<path d="M737.023 66.4906C722.905 61.3523 697.766 59.1643 691.828 75.4785C684.384 95.9305 711.254 111.422 726.116 116.832C735.057 120.086 750.349 121.144 766.165 114.049L763.596 108.785C749.672 114.829 739.497 113.134 730.243 109.765C719.772 105.954 703.783 92.4145 707.656 81.7748C711.801 70.3863 730.157 71.4443 740.274 75.1268C753.254 79.8511 764.564 87.0913 767.423 97.4145L773.133 96.3688L766.969 81.0941C765.25 82.5214 763.717 82.0973 762.737 81.7404C760.776 81.0268 758.557 79.1927 757.745 78.4955C752.932 74.5127 743.728 68.9313 737.023 66.4906Z" fill="#242424" stroke="#4A4A4A" stroke-width="5"/>
<path d="M742.969 128.365L745.134 122.415C737.815 120.197 735.835 115.996 738.546 108.548L753.276 68.0776L766.766 72.9875C771.746 74.8002 774.385 79.5091 775.86 84.2409L780.919 81.9321L776.611 67.7793L721.632 47.7685L709.195 55.8267L711.587 60.8475C715.759 58.1709 720.806 56.2595 725.787 58.0722L739.316 62.9964L724.586 103.467C721.875 110.915 717.619 112.847 710.625 109.855L708.46 115.805L742.969 128.365Z" fill="#242424" stroke="#4A4A4A" stroke-width="5"/>
<path d="M731.826 106.147L733.992 100.196C726.672 97.9784 724.693 93.7771 727.404 86.3293L742.134 45.8588L755.624 50.7688C760.604 52.5814 763.242 57.2903 764.717 62.0222L769.777 59.7133L765.469 45.5606L710.489 25.5498L698.053 33.608L700.444 38.6287C704.616 35.9522 709.664 34.0408 714.644 35.8535L728.173 40.7776L713.443 81.2481C710.732 88.6959 706.477 90.6278 699.483 87.636L697.317 93.5864L731.826 106.147Z" fill="#242424" stroke="#4A4A4A" stroke-width="5"/>
</g>
<g clip-path="url(#clip3_28_113)">
<path d="M29.0717 482.086L85.4533 502.608C90.1517 504.318 90.1517 504.318 96.5603 501.329L163.209 470.25C169.618 467.262 175.256 469.314 178.244 475.723L204.542 532.118C205.737 534.681 207.617 535.365 210.18 534.17L194.447 577.396C193.252 574.833 191.373 574.149 188.809 575.344L128.569 603.434C122.16 606.423 122.16 606.423 117.462 604.713L9.93631e-06 561.96L10.2606 533.769L118.325 573.102C123.024 574.812 123.024 574.812 129.432 571.823L174.292 550.905C176.856 549.71 177.198 548.77 176.002 546.206L159.865 511.6C158.67 509.037 156.79 508.353 154.227 509.548L100.395 534.65C93.9865 537.639 93.9866 537.639 89.2881 535.929L18.8111 510.277L29.0717 482.086Z" fill="#4A4A4A"/>
<path d="M376.758 608.634L320.376 588.112C315.678 586.402 315.678 586.402 312.69 579.994L281.611 513.345C278.622 506.936 272.984 504.884 266.576 507.872L210.18 534.17C207.617 535.365 205.737 534.681 204.542 532.118L188.809 575.344C191.373 574.148 193.252 574.832 194.447 577.396L222.538 637.636C225.526 644.045 225.526 644.045 230.225 645.755L347.686 688.508L357.947 660.317L249.882 620.984C245.184 619.274 245.184 619.274 242.195 612.866L221.277 568.006C220.081 565.442 220.424 564.503 222.987 563.307L257.593 547.17C260.157 545.975 262.036 546.659 263.231 549.222L288.334 603.054C291.322 609.463 291.322 609.463 296.02 611.173L366.497 636.824L376.758 608.634Z" fill="#4A4A4A"/>
</g>
<path d="M1634.71 458.12C1627.11 455.391 1619.62 453.399 1612.82 452.204C1592.82 448.681 1586.88 454.384 1582.21 467.193L1576.06 484.11L1620.48 500.28L1618.43 505.919L1574 489.749L1557.33 483.681C1544.42 478.982 1530.29 482.621 1521.39 496.084C1511.16 511.507 1507.14 521.992 1504.97 541.196C1503.34 555.487 1507.48 567.595 1520.39 572.294L1535.66 577.854L1543.04 557.574C1548.38 542.923 1565.77 534.617 1580.83 540.101L1625.21 556.251C1637.56 560.747 1651.12 554.174 1655.63 541.78L1671.01 499.513C1675.39 487.484 1668.52 474.75 1657.2 468.355C1650.03 464.308 1642.32 460.849 1634.71 458.12ZM1605.74 462.982C1610.32 464.652 1612.69 469.822 1610.98 474.501C1609.29 479.163 1604.17 481.569 1599.58 479.899C1594.97 478.223 1592.61 473.095 1594.31 468.432C1596.01 463.753 1601.13 461.306 1605.74 462.982Z" fill="#4A4A4A"/>
<path d="M1668.34 524.086L1661.17 543.796C1655.61 559.078 1637.96 567.22 1623.17 561.839L1578.8 545.688C1566.65 541.264 1552.8 547.998 1548.38 560.16L1532.99 602.426C1528.62 614.456 1536.51 625.342 1547 633.067C1559.56 642.317 1572.77 647.972 1591.37 649.218C1603.73 650.053 1617.13 647.555 1621.79 634.746L1627.95 617.829L1583.58 601.679L1585.63 596.04L1630 612.19L1652.21 620.275C1665.12 624.974 1673.21 617.727 1682.62 605.855C1692.32 593.639 1696.99 580.196 1699.04 560.743C1700.52 546.739 1697.94 534.859 1685.01 530.154L1668.34 524.086ZM1604.43 622.04C1609.03 623.716 1611.39 628.844 1609.69 633.507C1607.99 638.186 1602.88 640.633 1598.27 638.957C1593.68 637.287 1591.32 632.118 1593.02 627.439C1594.72 622.776 1599.84 620.37 1604.43 622.04Z" fill="#4A4A4A"/>
<g clip-path="url(#clip4_28_113)">
<path d="M1377.4 395.578L1484.32 434.491C1486.71 435.362 1487.94 438.009 1487.07 440.403L1448.16 547.316C1447.29 549.71 1444.64 550.944 1442.25 550.073L1335.33 511.16C1332.94 510.288 1331.71 507.642 1332.58 505.248L1371.49 398.334C1372.36 395.941 1375.01 394.706 1377.4 395.578Z" fill="#242424"/>
<path d="M1377.4 395.578L1484.32 434.491C1486.71 435.362 1487.94 438.009 1487.07 440.403L1448.16 547.316C1447.29 549.71 1444.64 550.944 1442.25 550.073L1335.33 511.16C1332.94 510.288 1331.71 507.642 1332.58 505.248L1371.49 398.334C1372.36 395.941 1375.01 394.706 1377.4 395.578ZM1414.94 478.875L1418.39 469.395L1377.25 454.424L1373.8 463.903L1388.49 469.248L1373.13 511.456L1384.82 515.711L1400.18 473.503L1414.94 478.875ZM1404.64 521.665C1406.18 523.312 1408.15 524.845 1410.55 526.262C1412.94 527.68 1415.57 528.908 1418.42 529.946C1421.2 530.958 1423.94 531.654 1426.63 532.036C1429.33 532.418 1431.84 532.345 1434.16 531.818C1436.49 531.29 1438.56 530.248 1440.37 528.689C1442.19 527.131 1443.62 524.91 1444.67 522.026C1445.43 519.936 1445.78 517.989 1445.73 516.187C1445.67 514.384 1445.27 512.654 1444.53 510.997C1443.8 509.341 1442.78 507.724 1441.47 506.149C1440.17 504.573 1438.64 502.974 1436.88 501.352C1435.58 500.173 1434.44 499.069 1433.44 498.041C1432.45 497.012 1431.64 496.037 1431.02 495.117C1430.39 494.196 1429.98 493.31 1429.77 492.458C1429.56 491.606 1429.61 490.747 1429.92 489.882C1430.21 489.089 1430.68 488.449 1431.32 487.962C1431.96 487.474 1432.74 487.139 1433.66 486.955C1434.57 486.771 1435.62 486.751 1436.8 486.894C1437.98 487.038 1439.24 487.352 1440.56 487.836C1441.53 488.187 1442.53 488.631 1443.55 489.167C1444.57 489.703 1445.57 490.319 1446.55 491.014C1447.53 491.711 1448.45 492.474 1449.31 493.305C1450.17 494.136 1450.93 495.009 1451.58 495.927L1455.5 485.149C1453.98 483.834 1452.24 482.633 1450.26 481.548C1448.29 480.463 1445.95 479.427 1443.24 478.442C1440.49 477.439 1437.77 476.783 1435.09 476.475C1432.41 476.166 1429.91 476.296 1427.58 476.864C1425.25 477.432 1423.19 478.485 1421.4 480.023C1419.61 481.562 1418.22 483.677 1417.24 486.368C1415.99 489.805 1415.92 493.1 1417.03 496.252C1418.14 499.405 1420.42 502.562 1423.87 505.722C1425.23 506.952 1426.49 508.129 1427.64 509.256C1428.79 510.382 1429.74 511.464 1430.5 512.502C1431.26 513.54 1431.78 514.561 1432.07 515.565C1432.36 516.569 1432.33 517.576 1431.96 518.585C1431.69 519.331 1431.26 519.955 1430.66 520.46C1430.07 520.965 1429.32 521.317 1428.41 521.518C1427.5 521.718 1426.45 521.75 1425.25 521.614C1424.06 521.478 1422.72 521.142 1421.25 520.605C1418.73 519.69 1416.4 518.346 1414.26 516.572C1412.11 514.797 1410.31 512.65 1408.84 510.13L1404.64 521.665Z" fill="#4A4A4A"/>
</g>
<path d="M419.983 183.672C420.009 183.896 420.069 184.026 420.164 184.06C420.591 184.178 421.026 184.265 421.466 184.319L422.363 184.216L424.95 184.191L431.513 183.572L432.634 183.443L433.177 183.426L433.885 183.254L435.04 183.03L436.42 182.78L438.283 182.384L441.629 181.454L443.337 180.894L445.622 180.222L447.778 179.61L448.744 179.317L450.262 178.688L451.815 177.964L454.437 176.663L457.378 175.37L460.879 173.422L462.863 172.103L463.579 171.612L465.753 170.362L470.117 167.224L471.359 166.173L474.637 163.069L476.44 161.362L479.718 158.259L481.59 156.362L484.005 153.267C484.005 153.267 487.025 149.103 488.586 146.878C488.688 146.777 488.76 146.648 488.792 146.508C488.824 146.367 488.816 146.221 488.768 146.085C488.595 145.378 488.553 144.61 488.415 143.808C488.329 143.454 488.182 142.972 488.096 142.618C488.01 142.264 487.743 141.523 487.657 141.169L487.234 140.263C486.872 139.487 486.51 138.711 486.174 138.159C485.955 137.964 485.786 137.718 485.683 137.443C484.609 135.702 483.311 134.109 481.821 132.707C481.166 132.147 480.51 131.586 479.855 131.025C479.277 130.585 478.669 130.184 478.036 129.826C477.917 129.721 477.773 129.646 477.619 129.608C477.464 129.571 477.302 129.571 477.148 129.61C476.794 129.696 476.656 130.076 476.518 130.455C476.078 131.369 475.698 132.413 475.224 133.421C474.749 134.43 474.309 135.344 473.834 136.353C473.394 137.267 473.084 138.121 472.644 139.035C472.105 140.214 471.476 141.349 470.763 142.432C469.589 144.475 468.286 146.579 467.018 148.588C466.724 149.184 466.343 149.733 465.888 150.217C465.159 151.026 464.514 151.907 463.964 152.847C462.763 154.763 461.389 156.564 459.858 158.227C458.739 159.692 457.46 161.028 456.045 162.21C455.995 162.234 455.952 162.269 455.917 162.313C455.883 162.356 455.859 162.406 455.846 162.46C454.992 163.331 454.233 164.236 453.414 165.012C452.837 165.496 452.29 166.014 451.775 166.564C451.09 167.244 450.358 167.875 449.584 168.452C448.376 169.409 447.108 170.236 445.996 171.227C445.202 171.909 444.363 172.537 443.486 173.107C443.237 173.226 443.024 173.407 442.864 173.633C442.19 174.181 441.471 174.674 440.717 175.107C439.319 175.994 437.827 176.848 436.335 177.701C435.395 178.218 434.489 178.64 433.549 179.158C432.739 179.614 431.833 180.037 430.927 180.459C430.734 180.558 430.528 180.627 430.315 180.666C429.808 180.807 429.312 180.986 428.832 181.2C427.767 181.748 426.641 182.168 425.477 182.449C424.994 182.596 424.416 182.708 423.933 182.854C422.653 183.283 421.328 183.558 419.983 183.672Z" fill="#4A4A4A"/>
<path d="M491.589 142.171C491.659 142.138 491.716 142.084 491.753 142.015C491.838 141.829 491.939 141.65 492.055 141.481L494.384 136.851L496.326 132.401L498.19 127.28L499.485 121.95C499.485 121.95 500.513 117.061 500.867 114.612C500.918 114.229 500.877 113.84 500.748 113.475C500.619 113.111 500.406 112.783 500.126 112.516C499.92 112.316 499.701 112.129 499.471 111.956C499.066 111.593 498.566 111.197 498.161 110.834C497.126 110.135 496.126 109.342 495.057 108.738C493.703 108.03 492.444 107.357 491.056 106.745C489.952 106.235 488.849 105.726 487.71 105.312L485.339 104.449C484.865 104.276 484.296 104.069 484.002 104.285C483.688 104.695 483.508 105.191 483.485 105.707C483.26 106.915 483.243 107.553 483.053 108.665C482.512 112.154 481.724 115.601 480.695 118.978C480.238 120.53 479.78 122.083 479.262 123.505L478.848 124.644C478.759 124.91 478.729 125.192 478.762 125.471C478.793 125.585 478.852 125.69 478.933 125.775C479.014 125.861 479.115 125.926 479.227 125.963C479.477 126.162 479.762 126.265 480.012 126.463C480.262 126.662 480.796 126.964 481.046 127.162C482.202 128.12 483.452 129.112 484.512 130.035C485.285 130.752 486.011 131.519 486.685 132.329C486.745 132.459 486.84 132.493 486.9 132.623C487.236 133.175 487.667 133.761 488.004 134.313C489 135.576 489.791 136.988 490.348 138.496C490.469 138.755 490.555 139.109 490.675 139.368C490.951 139.79 491.072 141.23 491.373 141.877C491.528 142.041 491.494 142.136 491.589 142.171Z" fill="#4A4A4A"/>
<path d="M477.198 75.1693C477.605 75.3391 478.03 75.458 478.466 75.5232C478.75 75.6268 478.94 75.6958 479.233 75.4803C479.304 75.3726 479.345 75.2488 479.355 75.1206C479.364 74.9923 479.34 74.8638 479.285 74.7473C479.26 74.5231 478.993 72.5999 478.993 72.5999L478.622 70.9613L476.917 64.4328L476.469 63.3029L476.15 62.1128L475.495 60.3706L473.729 56.0755L472.944 54.3937L469.911 48.5632L467.247 44.3713L466.161 43.224L462.764 38.9802L460.316 36.263L459.851 35.7713L457.73 33.9253L454.514 31.251L454.264 31.0526L453.229 30.3538L452.979 30.1554L452.039 29.4911L449.996 28.3177L448.953 27.9379L447.099 26.8335L444.797 25.7808L443.977 25.3752L442.555 24.8574L440.054 24.0546L437.579 23.4761L435.682 22.7857L434.001 22.3885L432.155 22.1465L430.689 22.0426L428.465 21.6625L427.99 21.4899L425.757 21.4288L424.515 21.2991L423.713 21.4369L421.833 21.2897L420.807 21.4533L419.626 21.4529L416.685 21.5642L413.011 21.6234L411.795 21.7179L409.07 22.1224L406.595 22.7254L404.447 23.0179L403.645 23.1557L401.274 23.4741L400.92 23.5602L397.988 24.5338L395.642 25.0764L395.159 25.2228L392.451 26.1706L391.451 26.5584C391.451 26.5584 389.967 27.0926 389.898 27.2823L390.761 27.274C390.761 27.274 392.39 27.2227 392.485 27.2572L392.77 27.3608L395.167 27.2667L395.452 27.3702L398.073 27.2503L399.444 27.3197L400.85 27.2942L402.765 27.3465L407.525 27.253L407.904 27.3911L410.267 27.3918L412.216 27.3493L412.337 27.608L415.527 28.8766L417.545 29.8258L417.64 29.8604L421.709 31.6639L427.392 34.0543L427.357 34.1492L428.788 36.7109L428.978 36.7799L430.339 39.5312L430.564 39.5054L433.375 40.6359L433.504 40.5756L440.574 43.5787L440.505 43.7684L443.04 46.8392L443.135 46.8737L447.825 51.6957L447.721 51.9802L451.395 51.9209L455.55 55.2595L455.826 56.8636L457.499 57.5798L458.515 60.0983L458.705 60.1673L459.481 62.1682L459.446 62.2631L459.636 62.3321L463.024 64.5321L463.687 67.1367L466.653 69.6125C468.322 70.7631 470.052 71.8229 471.835 72.7876C473.478 73.8739 475.291 74.6788 477.198 75.1693Z" fill="#4A4A4A"/>
<path d="M501.473 108.817C501.556 108.194 501.605 107.566 501.62 106.937L501.637 106.299L501.724 105.471L501.81 103.462L501.828 101.643L501.476 97.0029L501.408 94.8297L501.193 92.1736L500.685 89.7329L500.607 89.0603L500.341 87.1371L500.031 85.6279L499.884 85.1449L497.222 76.2273C497.222 76.2273 496.955 75.4856 496.774 75.0975C496.748 74.8733 496.688 74.7439 496.593 74.7094C496.593 74.7094 494.048 76.6834 493.108 77.2006C492.168 77.7177 490.392 78.4675 490.392 78.4675C490.392 78.4675 488.908 79.0017 488.684 79.0275C488.263 79.1531 487.834 79.2481 487.399 79.3117L486.019 79.5614C486.019 79.5614 485.027 79.6301 484.803 79.6559C484.579 79.6817 484.484 79.6472 484.355 79.7075C484.225 79.7678 484.191 79.8627 484.122 80.0524C484.053 80.242 484.113 80.3714 484.139 80.5957C484.233 81.8116 484.362 82.9327 484.457 84.1487C484.649 85.8895 484.729 87.6408 484.697 89.3919C484.749 89.9654 484.755 90.5423 484.713 91.1167C484.704 92.6172 484.6 94.0832 484.496 95.5491C484.479 96.1873 484.462 96.8254 484.41 97.5584C484.392 98.1966 484.245 98.895 484.228 99.5332C484.202 99.717 484.244 99.9039 484.345 100.059C484.447 100.215 484.601 100.328 484.78 100.378L485.918 100.793C487.341 101.311 488.703 101.699 490.126 102.217C490.505 102.355 493.152 103.641 493.152 103.641C493.152 103.641 494.066 104.081 494.506 104.348C495.48 104.918 496.42 105.582 497.394 106.151C498.211 106.657 498.966 107.256 499.645 107.937C499.979 108.251 500.346 108.529 500.74 108.765C500.861 108.832 500.977 108.91 501.084 108.998C501.309 108.972 501.438 108.912 501.473 108.817Z" fill="#4A4A4A"/>
<path d="M494.576 71.3973C494.588 71.0948 494.553 70.7924 494.473 70.5004L494.361 69.9226L493.913 68.7928L493.715 67.8614L493.112 66.5677L492.931 66.1796C491.801 64.2648 489.448 60.4007 489.448 60.4007L488.776 59.2967L487.621 57.1577L480.949 48.9287L475.388 43.2528L472.302 40.5181L471.146 39.5606L467.241 36.4204L464.387 34.5224L461.594 32.7537L461.119 32.5811L460.731 32.7621L460.791 32.8915C460.898 33.0407 461.037 33.1644 461.197 33.2538L463.628 35.4276C464.104 35.9328 464.614 36.4054 465.154 36.8424C465.548 37.0993 465.905 37.41 466.214 37.7654L469.55 41.8799C470.214 42.7058 470.789 43.5991 471.266 44.5451C471.611 45.2647 472.055 45.9324 472.585 46.5289C472.8 46.8222 472.981 47.2103 473.197 47.5035C473.352 47.6675 473.378 47.8917 473.533 48.0556C474.163 49.014 474.733 50.0107 475.239 51.0398C475.697 52.1903 476.221 53.3134 476.808 54.4035C477.364 55.4588 477.825 56.5614 478.187 57.6982C478.467 58.6365 478.816 59.5531 479.229 60.4408C480.014 62.1226 480.444 63.8906 481.099 65.6328C481.115 65.8767 481.173 66.116 481.271 66.34C481.616 67.7543 481.831 69.229 482.305 70.5831C482.622 71.5507 482.873 72.5391 483.054 73.5412C483.144 74.1704 483.277 74.7927 483.45 75.4041C483.481 75.5424 483.545 75.6713 483.637 75.7795C483.728 75.8876 483.845 75.972 483.976 76.0251C484.156 76.0596 484.342 76.0538 484.52 76.008L485.192 75.9306C485.192 75.9306 486.089 75.8274 486.408 75.8361C486.831 75.817 487.25 75.7535 487.659 75.6468C487.917 75.5261 488.978 75.2677 489.496 75.0264C490.15 74.7347 490.779 74.3888 491.376 73.9921L492.351 73.3801L494.179 71.8974C494.337 71.7526 494.471 71.5838 494.576 71.3973Z" fill="#4A4A4A"/>
<path d="M480.615 98.5404C480.659 96.9451 480.763 95.4791 480.806 93.8837C480.874 92.5969 480.877 91.3075 480.816 90.0203C480.773 89.2528 480.859 88.425 480.817 87.6575C480.86 87.2436 480.774 86.89 480.817 86.476C480.737 84.5347 480.545 82.5997 480.241 80.6808C480.275 80.5859 480.215 80.4566 480.155 80.3272C480.142 80.1306 480.056 79.946 479.913 79.8097C479.758 79.6458 479.534 79.6716 479.155 79.5335C478.361 79.3522 477.473 79.1363 477.094 78.9982C476.714 78.8601 475.257 78.4372 474.084 78.1177L473.834 77.9193L472.412 77.4015L468.885 75.5809C467.626 74.9079 464.772 73.0098 464.772 73.0098L462.772 71.4225L460.367 69.4728L460.143 69.4986L455.918 67.5312L455.788 67.5915L454.012 64.7969L453.728 64.6934L452.728 62.7183L452.737 62.3992L451.133 61.4932L450.909 61.519L449.659 60.527L449.538 60.2682L446.244 59.2842L443.718 57.0758L433.457 53.9855L433.302 53.8216L431.37 53.226L431.111 53.3466L426.041 51.9309L425.981 51.8015L417.478 53.3254L417.279 53.5754L416.891 53.7564L416.736 53.5925L413.364 51.9358L413.14 51.9616L406.88 49.6831L406.82 49.5537L405.052 48.8029L404.587 48.3112L396.178 51.0511L396.143 51.1459L393.211 52.1195L391.099 49.9544L390.875 49.9802L390.03 49.3504C390.03 49.3504 384.838 48.8573 384.933 48.8918L380.717 46.6054L380.536 46.2172L379.372 46.7602L377.259 46.9579L377.19 47.1476L372.714 48.5261L366.375 50.3006L359.165 52.4027L355.913 53.3676L355.439 54.3764L353.498 56.4627L352.264 58.3768L350.047 62.4034L348.977 64.1623L347.958 66.3697L345.698 70.8102L341.685 80.9504L341.762 81.6231L340.916 84.5376C340.916 84.5376 340.744 85.0119 340.933 85.0809L358.149 76.7383L362.814 76.6103L366.298 77.6634L369.247 76.0517L369.61 75.6465L369.86 75.8449L375.698 77.2178L376.051 77.1316L378.138 77.8911L378.388 78.0896L379.362 77.4776L382.476 76.8921L385.822 75.9617L393.376 78.8184L393.401 79.0426L396.238 80.3974L398.687 80.7516L404.543 77.9421L404.638 77.9766L409.227 75.9945L414.495 77.1603L414.72 77.1344L414.84 77.3932L417.047 79.5929L417.306 79.4722L419.781 80.0507L419.91 79.9903L422.23 80.405L422.454 80.3792L424.1 83.2341L424.264 83.0789L429.231 84.7792L429.714 84.6327L433.534 86.2379L433.689 86.4018L434.327 86.4192L434.491 86.264L436.345 86.187L436.535 86.256L438.648 86.0583L438.906 85.9377L441.079 85.8693L441.243 85.7141L447.314 85.5607L447.349 85.4658L448.401 85.5265L448.66 85.4058L448.841 85.7939L450.082 87.1051L450.556 87.2777L451.919 88.8476L452.082 88.6924L452.755 88.615L452.85 88.6496L453.842 88.5809L453.876 88.486L455.213 88.6503L458.127 90.6777L458.86 90.7296L459.291 91.3162L461.524 92.5586L463.49 94.2408L464.852 94.6292L465.223 95.0864L465.671 95.0348C465.671 95.0348 470.431 96.1228 472.777 96.7616C474.329 97.2191 475.821 97.5473 477.373 98.0048C478.261 98.2206 479.149 98.4365 479.942 98.6178C480.339 99.2992 480.598 99.1786 480.615 98.5404Z" fill="#4A4A4A"/>
<path d="M475.477 122.987C475.58 122.702 475.555 122.478 475.693 122.099C475.933 121.186 476.224 120.288 476.564 119.408C476.668 119.124 476.677 118.805 476.78 118.52C477.065 117.442 477.479 116.304 477.764 115.226C478.187 113.769 478.386 112.337 478.68 110.94C478.87 109.828 479.06 108.716 479.25 107.603C479.474 106.396 479.63 105.378 479.76 104.137C479.889 102.895 479.734 102.731 478.561 102.412C478.512 102.387 478.458 102.373 478.403 102.371C478.348 102.37 478.293 102.381 478.242 102.403C477.828 102.36 477.164 102.118 476.751 102.075C474.465 101.565 472.344 100.901 469.964 100.357L462.815 100.225L453.718 96.592L452.779 95.9277L452.71 96.1174L449.234 97.1081L448.855 96.97L445.948 98.1678L445.75 98.4178L439.972 97.1744L433.53 99.2335L432.961 99.0264L429.718 99.6722L428.64 99.3873L427.286 99.8612L427.07 99.5679L422.087 97.3243L420.853 98.0569L420.784 98.2466L414.566 101.461L414.367 101.711L414.178 101.642L406.139 106.021L404.621 105.469L404.458 105.624L399.534 104.691L399.154 104.553L398.99 104.708L389.754 106.18L386.477 104.558L385.615 104.566L382.27 103.134L377.509 105.59L375.379 105.244L374.275 104.735L372.869 104.761L372.145 104.39L372.076 104.579L366.729 106.285L366.315 106.242L357.906 108.982L357.897 109.301L350.228 117.681L350.28 118.129L343.339 116.247L340.467 117.35L340.001 118.04L341.517 123.318L342.456 127.527L343.455 130.683L345.342 135.237C345.304 135.34 345.301 135.452 345.334 135.556C345.428 135.591 345.713 135.694 345.678 135.789L347.334 137.144L349.334 138.731C349.329 138.743 349.327 138.757 349.327 138.77C349.328 138.783 349.331 138.796 349.337 138.808C349.342 138.821 349.35 138.831 349.36 138.84C349.37 138.849 349.382 138.856 349.394 138.86L349.584 138.929L352.826 141.828L353.11 141.931L353.196 142.285L353.576 142.423L354.222 143.303L356.145 143.036L356.24 143.071L357.172 142.873L362.44 146.401L367.502 145.773L377.237 148.242L383.37 143.493L385.699 142.407L385.889 142.476L387.665 141.726L387.734 141.536L390.9 140.218L392.452 139.494L392.806 139.408L394.617 138.563L396.04 137.9L396.359 137.908L396.42 136.856L398.913 133.252L401.241 133.348L401.371 133.287L402.069 133.434L402.207 133.055L406.71 129.538L407.029 129.546L408.996 127.684L411.272 127.331L411.661 127.15L412.005 127.383L413.385 127.134L413.48 127.168L415.912 126.979L416.205 126.764L424.269 126.154L424.648 126.292L424.881 125.947L425.234 125.861L426.761 123.731L429.288 123.577L431.953 124.224L434.816 123.44L438.006 124.709L438.187 125.097L438.446 124.977L443.724 124.642L443.931 124.073L445.829 122.4L448.312 122.66L448.476 122.504L451.753 122.945L453.409 121.937L453.599 122.006C453.919 121.846 454.254 121.716 454.599 121.618L456.582 122.662L456.643 122.792L457.712 123.396L458.436 123.767C458.436 123.767 462.084 123.483 463.524 123.363C464.162 123.38 464.706 123.363 465.344 123.381C466.206 123.372 466.939 123.424 467.801 123.416C468.215 123.459 468.629 123.502 468.948 123.511L470.475 123.744L472.286 124.081L473.363 124.366C473.599 124.4 473.832 124.449 474.062 124.513C474.29 124.627 474.553 124.645 474.795 124.565C475.054 124.444 475.123 124.254 475.287 124.099C475.282 123.72 475.346 123.343 475.477 122.987Z" fill="#4A4A4A"/>
<path d="M473.172 129.023C473.32 128.739 473.363 128.412 473.293 128.1C473.193 127.892 473.031 127.72 472.828 127.608C472.638 127.539 471.845 127.358 471.845 127.358L470.448 127.064C470.289 126.99 470.113 126.963 469.939 126.987C469.111 126.9 468.189 126.779 467.361 126.693C466.406 126.603 465.447 126.577 464.489 126.614C463.497 126.683 462.351 126.588 461.324 126.751C460.971 126.837 457.418 127.155 455.848 127.336L453.485 128.517L453.252 128.862L453.097 128.698L452.019 128.413L451.889 128.473L447.966 128.334L447.828 128.713L447.31 128.955L447.241 129.145L444.593 131.403L444.403 131.334L444.3 131.619C443.925 131.898 443.565 132.197 443.222 132.515L434.097 134.565L433.907 134.496L432.424 135.03L430.526 137.884L429.526 138.272L422.779 147.954L422.71 149.325L417.682 149.858L417.018 149.617L414.818 153.005L414.688 153.066L412.402 156.1L412.428 156.325L410.884 159.092L410.625 159.213L410.616 159.532L404.156 164.592L403.836 164.584L402.206 165.816L402.103 166.101L396.798 169.756L392.305 170.591L392.391 170.944L391.649 172.393L391.726 173.066L391.088 173.048L387.846 173.694L387.596 173.496L382.749 174.417L381.998 175.003C382.457 175.294 382.942 175.543 383.447 175.745L385.939 176.867L387.612 177.583L393.587 179.758L399.33 181.096L402.857 181.736L405.565 181.969L408.497 182.177L412.395 182.092L412.748 182.006L413.904 181.782C415.537 181.578 417.156 181.27 418.751 180.861C421.424 180.008 424.193 179.189 426.84 178.112C427.746 177.69 428.617 177.362 429.523 176.94C430.394 176.613 431.205 176.156 432.11 175.734C432.24 175.673 432.464 175.647 432.533 175.458C432.934 175.071 433.41 174.769 433.93 174.57C434.304 174.411 434.662 174.218 435 173.993C435.693 173.524 436.444 173.147 437.233 172.872C437.835 172.581 438.42 172.256 438.984 171.898C439.993 171.191 440.908 170.45 441.917 169.743C443.219 168.821 444.522 167.898 445.764 166.847C447.041 165.7 448.317 164.554 449.559 163.502C450.638 162.605 451.75 161.614 452.768 160.588C454.381 158.812 456.055 157.165 457.608 155.26C459.269 153.344 460.797 151.316 462.18 149.19C463.276 147.656 464.216 145.957 465.372 144.552C465.536 144.397 465.64 144.112 465.803 143.957C466.606 142.638 467.313 141.284 467.986 140.025C468.659 138.766 469.332 137.507 470.005 136.249C470.446 135.335 470.946 134.55 471.386 133.636C471.93 132.438 472.508 131.144 472.957 129.911L473.095 129.532C473.099 129.36 473.125 129.188 473.172 129.023Z" fill="#4A4A4A"/>
<path d="M1410.49 817.104L1200 740.491L1276.61 530L1487.1 606.613L1341.95 671.199L1410.49 817.104Z" fill="#4A4A4A"/>
<g clip-path="url(#clip5_28_113)">
<path d="M1566.31 752.745C1562.91 762.075 1552.61 766.892 1543.3 763.503C1533.99 760.114 1529.2 749.804 1532.59 740.475C1535.99 731.149 1546.29 726.333 1555.6 729.722C1564.91 733.111 1569.7 743.42 1566.31 752.745Z" fill="#4A4A4A"/>
<path d="M1633.74 777.288C1641.38 756.3 1609.84 725.55 1563.28 708.606C1516.73 691.662 1472.8 694.944 1465.16 715.932C1457.52 736.924 1489.07 767.675 1535.62 784.618C1582.17 801.562 1626.1 798.28 1633.74 777.288Z" stroke="#4A4A4A" stroke-width="8.97869"/>
<path d="M1564.97 835.09C1586.94 831.201 1597.79 788.43 1589.21 739.565C1580.64 690.698 1555.89 654.241 1533.93 658.13C1511.97 662.023 1501.11 704.791 1509.69 753.659C1518.26 802.525 1543.01 838.983 1564.97 835.09Z" stroke="#4A4A4A" stroke-width="8.9787"/>
<path d="M1480.69 804.412C1495.01 821.511 1537.4 809.494 1575.38 777.569C1613.36 745.646 1632.54 705.908 1618.22 688.808C1603.89 671.713 1561.5 683.73 1523.52 715.654C1485.54 747.574 1466.36 787.316 1480.69 804.412Z" stroke="#4A4A4A" stroke-width="8.9787"/>
</g>
<g clip-path="url(#clip6_28_113)">
<path d="M40.7683 934.765L67.7747 871.095C68.2123 870.046 68.4091 868.912 68.3504 867.776C68.2916 866.641 67.979 865.533 67.4354 864.534C66.8918 863.535 66.1312 862.671 65.2094 862.005C64.2877 861.34 63.2284 860.889 62.1095 860.687L-6.62424 848.53L10.8585 827.64C11.561 826.811 11.9864 825.783 12.075 824.7C12.1636 823.618 11.911 822.534 11.3526 821.602L-38.5571 738.54L-19.9039 736.897C-18.6419 736.78 -17.466 736.207 -16.5971 735.284C-15.7281 734.362 -15.2258 733.153 -15.1846 731.887L-13.5157 683.779L24.0972 707.263C25.1177 707.895 26.3255 708.155 27.5156 707.998C28.7058 707.841 29.8052 707.278 30.6273 706.403L45.2847 690.702L64.6691 736.423C65.1173 737.455 65.8879 738.314 66.8654 738.871C67.8429 739.428 68.9747 739.653 70.0909 739.512C71.2072 739.372 72.2477 738.873 73.0566 738.091C73.8654 737.309 74.3989 736.286 74.577 735.175L88.0308 650.476L107.449 673.64C107.904 674.189 108.466 674.638 109.101 674.961C109.735 675.283 110.43 675.472 111.141 675.515C111.852 675.558 112.564 675.455 113.233 675.212C113.902 674.968 114.515 674.59 115.032 674.101L157.846 634.155L164.968 692.276C165.049 692.983 165.275 693.666 165.631 694.283C165.988 694.9 166.467 695.436 167.039 695.86C167.612 696.284 168.265 696.586 168.959 696.747C169.652 696.908 170.372 696.925 171.072 696.797L200.837 691.534L156.7 765.065C156.123 766.031 155.874 767.157 155.99 768.276C156.107 769.395 156.584 770.446 157.349 771.271C158.113 772.097 159.125 772.652 160.232 772.853C161.339 773.055 162.481 772.893 163.488 772.39L207.726 749.826L208.862 771.275C208.929 772.474 209.409 773.612 210.22 774.497C211.031 775.382 212.123 775.959 213.311 776.131L257.22 782.318L227.575 820.244C226.792 821.241 226.401 822.489 226.473 823.755C226.546 825.02 227.078 826.215 227.97 827.116L241.203 840.364L149.578 871.912C148.551 872.267 147.662 872.935 147.033 873.821C146.405 874.708 146.07 875.769 146.076 876.855L146.041 904.095L85.5732 869.227C84.5861 868.663 83.485 868.327 82.3509 868.244C81.2169 868.162 80.0788 868.335 79.0205 868.751C77.9621 869.166 77.0105 869.814 76.2356 870.646C75.4607 871.478 74.8823 872.473 74.5431 873.559L54.3051 939.692L40.7683 934.765Z" fill="#4A4A4A"/>
</g>
<g clip-path="url(#clip7_28_113)">
<path d="M590.841 287.005L604.429 254.97C604.65 254.441 604.749 253.871 604.719 253.299C604.69 252.728 604.532 252.171 604.259 251.668C603.985 251.166 603.603 250.731 603.139 250.396C602.675 250.061 602.142 249.834 601.579 249.732L566.995 243.616L575.792 233.105C576.145 232.688 576.359 232.171 576.404 231.626C576.448 231.081 576.321 230.536 576.04 230.067L550.928 188.273L560.313 187.447C560.948 187.388 561.54 187.1 561.977 186.635C562.415 186.171 562.667 185.563 562.688 184.926L563.528 160.72L582.453 172.536C582.966 172.854 583.574 172.985 584.173 172.906C584.772 172.827 585.325 172.544 585.739 172.104L593.113 164.204L602.867 187.208C603.092 187.728 603.48 188.16 603.972 188.44C604.464 188.72 605.033 188.833 605.595 188.763C606.157 188.692 606.68 188.441 607.087 188.048C607.494 187.654 607.762 187.139 607.852 186.58L614.621 143.964L624.392 155.619C624.621 155.895 624.903 156.121 625.223 156.283C625.542 156.445 625.892 156.54 626.249 156.562C626.607 156.584 626.965 156.532 627.302 156.409C627.639 156.287 627.947 156.097 628.207 155.85L649.75 135.752L653.333 164.995C653.374 165.351 653.487 165.695 653.667 166.005C653.846 166.316 654.087 166.586 654.375 166.799C654.663 167.012 654.992 167.164 655.341 167.245C655.69 167.326 656.052 167.335 656.404 167.27L671.381 164.622L649.173 201.62C648.882 202.106 648.757 202.673 648.816 203.236C648.875 203.799 649.114 204.327 649.499 204.743C649.884 205.158 650.393 205.437 650.95 205.539C651.507 205.64 652.082 205.558 652.588 205.305L674.847 193.952L675.418 204.745C675.452 205.348 675.694 205.92 676.102 206.366C676.51 206.811 677.059 207.101 677.657 207.188L699.75 210.301L684.834 229.383C684.44 229.885 684.243 230.513 684.28 231.15C684.316 231.786 684.584 232.388 685.032 232.841L691.691 239.507L645.589 255.381C645.073 255.559 644.625 255.895 644.309 256.341C643.993 256.787 643.824 257.321 643.827 257.868L643.809 271.574L613.385 254.03C612.888 253.746 612.334 253.577 611.764 253.535C611.193 253.494 610.62 253.581 610.088 253.79C609.555 253.999 609.076 254.325 608.687 254.744C608.297 255.162 608.006 255.663 607.835 256.209L597.652 289.484L590.841 287.005Z" fill="#4A4A4A"/>
</g>
<g clip-path="url(#clip8_28_113)">
<path d="M917.638 865.243L943.315 804.709C943.731 803.711 943.918 802.633 943.862 801.553C943.806 800.474 943.509 799.42 942.992 798.471C942.475 797.521 941.752 796.7 940.876 796.067C939.999 795.434 938.992 795.006 937.928 794.813L872.58 783.255L889.202 763.394C889.87 762.606 890.274 761.629 890.358 760.599C890.442 759.57 890.202 758.54 889.671 757.654L842.22 678.682L859.954 677.121C861.154 677.009 862.272 676.464 863.098 675.587C863.924 674.71 864.402 673.561 864.441 672.357L866.028 626.618L901.788 648.946C902.759 649.547 903.907 649.794 905.038 649.645C906.17 649.496 907.215 648.96 907.997 648.128L921.932 633.2L940.362 676.67C940.788 677.651 941.521 678.467 942.45 678.997C943.379 679.526 944.456 679.74 945.517 679.607C946.578 679.473 947.567 678.999 948.336 678.255C949.105 677.512 949.613 676.539 949.782 675.483L962.573 594.956L981.035 616.979C981.467 617.501 982.001 617.928 982.605 618.234C983.209 618.541 983.869 618.72 984.545 618.761C985.221 618.802 985.898 618.704 986.534 618.473C987.171 618.242 987.753 617.882 988.244 617.417L1028.95 579.438L1035.72 634.697C1035.8 635.369 1036.01 636.019 1036.35 636.605C1036.69 637.191 1037.15 637.702 1037.69 638.105C1038.23 638.508 1038.86 638.795 1039.51 638.948C1040.17 639.101 1040.86 639.117 1041.52 638.995L1069.82 633.992L1027.86 703.901C1027.31 704.819 1027.07 705.89 1027.19 706.954C1027.3 708.018 1027.75 709.017 1028.48 709.802C1029.2 710.586 1030.17 711.114 1031.22 711.306C1032.27 711.498 1033.36 711.343 1034.31 710.865L1076.37 689.412L1077.45 709.805C1077.52 710.945 1077.97 712.027 1078.74 712.869C1079.52 713.71 1080.55 714.259 1081.68 714.422L1123.43 720.305L1095.24 756.362C1094.5 757.31 1094.13 758.497 1094.2 759.7C1094.27 760.903 1094.77 762.039 1095.62 762.896L1108.2 775.491L1021.09 805.486C1020.11 805.824 1019.27 806.458 1018.67 807.301C1018.07 808.144 1017.75 809.152 1017.76 810.185L1017.73 836.084L960.237 802.933C959.298 802.396 958.251 802.077 957.173 801.999C956.095 801.92 955.013 802.085 954.007 802.48C953 802.875 952.096 803.491 951.359 804.282C950.622 805.073 950.072 806.019 949.75 807.051L930.508 869.927L917.638 865.243Z" fill="#4A4A4A"/>
</g>
<g clip-path="url(#clip9_28_113)">
<path d="M915.507 529.734C913.156 536.192 906.028 539.527 899.583 537.181C893.137 534.835 889.82 527.699 892.171 521.241C894.52 514.786 901.648 511.451 908.094 513.797C914.539 516.143 917.856 523.279 915.507 529.734Z" fill="#4A4A4A"/>
<path d="M962.183 546.724C967.471 532.195 945.638 510.909 913.414 499.181C881.19 487.452 850.782 489.724 845.494 504.252C840.205 518.783 862.039 540.069 894.263 551.797C926.487 563.526 956.895 561.254 962.183 546.724Z" stroke="#4A4A4A" stroke-width="8.97869"/>
<path d="M914.584 586.735C929.786 584.043 937.3 554.436 931.363 520.611C925.43 486.785 908.296 461.549 893.094 464.241C877.891 466.935 870.378 496.54 876.314 530.367C882.247 564.193 899.381 589.429 914.584 586.735Z" stroke="#4A4A4A" stroke-width="8.9787"/>
<path d="M856.239 565.499C866.153 577.335 895.5 569.017 921.788 546.918C948.079 524.821 961.353 497.313 951.438 485.477C941.523 473.643 912.177 481.961 885.889 504.06C859.599 526.155 846.324 553.665 856.239 565.499Z" stroke="#4A4A4A" stroke-width="8.9787"/>
</g>
<g clip-path="url(#clip10_28_113)">
<path d="M1793.38 112.604L1697.97 77.8777L1663.25 173.296L1758.65 208.022L1793.38 112.604Z" fill="#4A4A4A"/>
<path d="M1715.8 114.889C1719.03 116.066 1722.61 114.393 1723.79 111.154C1724.97 107.915 1723.3 104.334 1720.07 103.158C1716.84 101.981 1713.26 103.653 1712.08 106.892C1710.9 110.132 1712.57 113.712 1715.8 114.889Z" fill="#242424"/>
<path d="M1710.87 128.427C1714.11 129.604 1717.68 127.933 1718.86 124.696C1720.04 121.458 1718.37 117.88 1715.14 116.703C1711.91 115.526 1708.33 117.197 1707.15 120.434C1705.97 123.672 1707.64 127.25 1710.87 128.427Z" fill="#242424"/>
<path d="M1705.94 141.983C1709.17 143.16 1712.75 141.488 1713.93 138.249C1715.11 135.01 1713.44 131.43 1710.21 130.254C1706.98 129.077 1703.4 130.748 1702.22 133.987C1701.04 137.226 1702.71 140.806 1705.94 141.983Z" fill="#242424"/>
<path d="M1701.01 155.529C1704.24 156.706 1707.82 155.035 1709 151.797C1710.18 148.56 1708.51 144.981 1705.28 143.804C1702.04 142.627 1698.47 144.298 1697.29 147.536C1696.11 150.774 1697.78 154.353 1701.01 155.529Z" fill="#242424"/>
<path d="M1696.08 169.077C1699.31 170.254 1702.89 168.584 1704.07 165.348C1705.24 162.111 1703.58 158.534 1700.34 157.357C1697.11 156.18 1693.53 157.85 1692.36 161.086C1691.18 164.323 1692.84 167.9 1696.08 169.077Z" fill="#242424"/>
<path d="M1719.35 146.863C1722.59 148.042 1726.17 146.372 1727.35 143.133C1728.53 139.894 1726.86 136.313 1723.62 135.134C1720.38 133.955 1716.8 135.625 1715.62 138.864C1714.44 142.103 1716.11 145.684 1719.35 146.863Z" fill="#242424"/>
<path d="M1732.73 151.736C1735.98 152.915 1739.56 151.246 1740.74 148.007C1741.92 144.768 1740.25 141.186 1737 140.006C1733.76 138.827 1730.18 140.496 1729 143.735C1727.82 146.974 1729.49 150.556 1732.73 151.736Z" fill="#242424"/>
<path d="M1675.35 69.6446L1579.95 34.9214L1545.22 130.34L1640.62 165.063L1675.35 69.6446Z" fill="#4A4A4A"/>
<path d="M1596.75 60.396L1593.11 70.4206L1612.66 77.5364L1593.06 131.369L1606.24 136.166L1625.83 82.3329L1644.32 89.0611L1647.97 79.0364L1596.75 60.396Z" fill="#242424"/>
<path d="M1439.32 -16.2661L1343.89 -51L1309.16 44.4183L1404.59 79.1521L1439.32 -16.2661Z" fill="#4A4A4A"/>
<path d="M1393.68 -13.5177L1357.8 -26.5747L1354.92 -18.6531L1366 -14.6214L1348.91 32.3417L1337.83 28.3099L1334.56 37.283L1369.39 49.96L1372.46 41.5244L1361.04 36.7599L1368.15 17.2312L1382.92 22.6057C1402.27 30.2476 1408.83 10.5242 1408.83 10.5242C1408.83 10.5242 1414.79 -5.83495 1393.68 -13.5177ZM1384.57 14.8449L1370.85 9.85177L1378.15 -10.1994L1391.87 -5.20623C1398.2 -2.89965 1398.38 3.13695 1396.85 7.35148C1394.92 12.6325 1390.36 16.9514 1384.57 14.8449Z" fill="#242424"/>
<path d="M1557.35 26.6936L1461.9 -8.04468L1427.18 87.3736L1522.62 122.112L1557.35 26.6936Z" fill="#4A4A4A"/>
<path d="M1495.3 27.6537L1451.24 79.7493L1455.95 81.4659L1495.1 34.7489L1495.3 27.6537Z" fill="#242424"/>
<path d="M1497.35 23.6279L1498.73 97.0371L1504 98.9535L1503.68 25.9325L1497.35 23.6279Z" fill="#242424"/>
<path d="M1510.53 28.4264L1505.78 26.6975L1506.1 99.7185L1510.85 101.445L1510.53 28.4264Z" fill="#242424"/>
<path d="M1476.4 67.9846L1478.24 66.2658L1496.18 72.7947L1495.61 67.8128L1481.88 62.8149L1496 47.03L1495.52 38.4929L1458.09 82.2465L1463.35 84.1604L1473.84 71.8344L1496 79.9019L1495.96 75.1007L1476.4 67.9846Z" fill="#242424"/>
</g>
<path d="M1709.35 349.807L1714.47 351.673L1734.39 342.409L1737.36 336.479C1731.67 326.061 1723.42 317.259 1713.39 310.904C1703.36 304.549 1691.87 300.852 1680.01 300.161C1668.16 299.47 1656.32 301.808 1645.63 306.955C1634.94 312.102 1625.74 319.888 1618.9 329.577C1620.77 329.503 1622.61 330.051 1624.14 331.135L1655.11 336.96C1655.11 336.96 1657.49 335.045 1658.2 335.478C1666.96 330.895 1677.14 329.829 1686.67 332.5C1696.2 335.17 1704.35 341.375 1709.45 349.845L1709.35 349.807Z" fill="#4A4A4A"/>
<path d="M1745.81 375.768C1746.95 362.204 1744.09 348.6 1737.6 336.624L1709.65 349.626C1712.65 354.666 1714.47 360.321 1714.97 366.163C1715.47 372.004 1714.63 377.881 1712.52 383.35L1711.2 386.983C1713.6 387.855 1715.8 389.19 1717.68 390.911C1719.56 392.632 1721.08 394.705 1722.16 397.013C1723.24 399.321 1723.85 401.818 1723.97 404.362C1724.08 406.905 1723.69 409.446 1722.82 411.837C1721.95 414.229 1720.61 416.426 1718.89 418.302C1717.17 420.178 1715.1 421.696 1712.79 422.771C1710.48 423.845 1707.98 424.455 1705.43 424.564C1702.88 424.674 1700.34 424.281 1697.94 423.409L1661.45 410.126L1656.47 412.486L1648.52 434.331L1650.83 439.288L1687.33 452.571C1697.49 456.359 1708.6 456.782 1719.01 453.777C1729.43 450.772 1738.59 444.499 1745.15 435.885C1751.71 427.272 1755.31 416.775 1755.43 405.948C1755.55 395.122 1752.18 384.54 1745.81 375.768Z" fill="#4A4A4A"/>
<path d="M1614.36 425.782L1650.86 439.065L1661.47 409.903L1624.98 396.62C1622.38 395.673 1620.01 394.18 1618.04 392.241L1612.33 391.961L1592.32 401.188L1589.17 405.837C1595.16 415.058 1604.01 422.064 1614.36 425.782Z" fill="#4A4A4A"/>
<path d="M1648.79 331.186C1638.88 327.646 1628.12 327.283 1618 330.149C1607.88 333.016 1598.91 338.967 1592.35 347.172C1585.79 355.377 1581.97 365.427 1581.41 375.917C1580.85 386.407 1583.58 396.814 1589.23 405.684L1618.09 392.26C1615.84 390.068 1614.16 387.364 1613.18 384.381C1612.21 381.398 1611.98 378.224 1612.5 375.133C1613.03 372.041 1614.29 369.124 1616.2 366.631C1618.1 364.139 1620.58 362.145 1623.43 360.821C1626.27 359.498 1629.4 358.883 1632.54 359.031C1635.67 359.179 1638.73 360.085 1641.44 361.671C1644.15 363.257 1646.44 365.476 1648.1 368.137C1649.77 370.798 1650.76 373.822 1651 376.95L1679.86 363.525C1677.53 356.11 1673.51 349.332 1668.12 343.722C1662.73 338.112 1656.11 333.821 1648.79 331.186Z" fill="#4A4A4A"/>
<path fill-rule="evenodd" clip-rule="evenodd" d="M1120.1 178.311L1264.3 56.2714L1366.56 93.489L1310.46 247.599L1249.03 225.238L1286.37 122.633L1188 203.025L1120.1 178.311Z" fill="#4A4A4A"/>
<path fill-rule="evenodd" clip-rule="evenodd" d="M1143.45 12.2856L999.255 134.327L897 97.1096L953.091 -57L1014.52 -34.6401L977.18 67.9637L1075.55 -12.4281L1143.45 12.2856Z" fill="#4A4A4A"/>
<path fill-rule="evenodd" clip-rule="evenodd" d="M1167.7 21.1127L1240.45 47.5916L1095.04 169.19L1022.29 142.711L1167.7 21.1127Z" fill="#4A4A4A"/>
<g clip-path="url(#clip11_28_113)">
<path d="M1418.59 322.247C1418.59 322.247 1407.29 324.276 1422.58 331.919C1441.12 341.162 1451.11 344.443 1473.89 348.165C1473.89 348.165 1478.21 353.716 1484.93 359.606C1429.71 362.692 1377.26 319.075 1418.59 322.247Z" fill="#4A4A4A"/>
<path d="M1422.48 293.41C1422.48 293.41 1409.2 297.344 1424.57 304.809C1444.45 314.457 1460.7 320.568 1490.9 325.406C1490.9 325.406 1493.36 330.785 1498.71 335.183C1434.82 331.051 1376.16 292.084 1422.48 293.41Z" fill="#4A4A4A"/>
<path d="M1488.17 266.004C1495.01 283.837 1475.71 290.622 1475.71 290.622C1475.71 290.622 1511.21 286.071 1504.52 261.758C1498.26 239.077 1491.68 226.549 1556.13 215.055C1556.13 215.055 1465.01 205.514 1488.17 266.004Z" fill="#4A4A4A"/>
<path d="M1517.94 380.783C1517.94 380.783 1522.77 388.98 1506.67 388.101C1476.06 386.418 1387.96 357.209 1367.58 337.853C1360.25 330.897 1378.49 331.584 1384.03 332.35C1389.81 333.138 1392.79 334.468 1392.79 334.468C1385.59 324.124 1325.34 325.084 1358.94 343.869C1450.58 395.108 1539.05 401.371 1517.94 380.783Z" fill="#4A4A4A"/>
<path d="M1442.87 269.488C1442.87 269.488 1394.69 263.88 1421.94 278.13C1433.45 284.15 1457.69 292.559 1480.83 298.85C1499.74 303.982 1519.37 307.397 1519.37 307.397C1519.37 307.397 1511.89 307.813 1506.04 309.306C1456.7 304.759 1371.71 267.587 1401.17 264.588C1426.07 262.059 1442.87 269.488 1442.87 269.488Z" fill="#4A4A4A"/>
<path d="M1506.24 342.907C1560.67 335.781 1547.83 305.218 1531.93 302.921C1528.04 302.357 1526.18 302.422 1526.18 302.422C1526.18 302.422 1528.3 300.805 1531.19 300.828C1564.16 301.191 1571.87 349.951 1504.88 343.771C1504.88 343.771 1505.82 343.396 1506.24 342.907Z" fill="#4A4A4A"/>
<path d="M1543.7 154.095C1543.7 154.095 1559.82 188.683 1496.23 209.701C1445.24 226.566 1469.32 255.532 1470.92 279.193C1455.39 249.916 1445.11 225.375 1462.71 212.426C1488.55 193.418 1539.27 198.102 1543.7 154.095Z" fill="#4A4A4A"/>
<path d="M1407.72 380.049C1450.64 398.854 1519.71 419.04 1528.87 398.83C1528.87 398.83 1522.93 405.594 1487.41 399.754C1447.34 393.162 1401.38 375.502 1375.59 360.994C1375.59 360.994 1379.52 367.686 1407.72 380.049Z" fill="#4A4A4A"/>
</g>
<g clip-path="url(#clip12_28_113)">
<path d="M474.902 902.185C406.564 877.313 331.403 909.629 301.71 974.657L360.943 1028.86C368.321 1026.97 376.32 1027.2 383.998 1030C384.687 1030.25 385.361 1030.53 386.029 1030.81L433.394 997.149C433.472 996.934 433.548 996.725 433.625 996.514C443.472 969.462 473.488 955.462 500.543 965.31C527.595 975.156 541.59 1005.17 531.744 1032.23C521.898 1059.28 491.881 1073.28 464.828 1063.43C464.455 1063.3 464.084 1063.16 463.725 1063L408.017 1078.46C407.837 1079.04 407.639 1079.63 407.427 1080.21C400.035 1100.52 377.506 1111.03 357.2 1103.64C339.376 1097.15 329.102 1079 331.858 1060.93L289.491 1022.17C285.055 1082.4 320.651 1140.69 380.205 1162.36C452.053 1188.51 531.495 1151.47 557.642 1079.63C583.794 1007.78 546.748 928.335 474.902 902.185Z" fill="#4A4A4A"/>
<path d="M354.938 1082.06L341.361 1069.64C342.047 1076.57 345.149 1083.29 350.667 1088.37C362.598 1099.35 381.239 1098.57 392.222 1086.63C397.537 1080.86 400.289 1073.35 399.958 1065.51C399.634 1057.66 396.272 1050.41 390.492 1045.09C384.756 1039.81 377.475 1037.28 370.237 1037.36L384.259 1050.2C393.058 1058.3 393.628 1071.99 385.53 1080.79C377.44 1089.6 363.736 1090.16 354.938 1082.06Z" fill="#4A4A4A"/>
<path d="M515.37 1026.27C521.93 1008.24 512.605 988.24 494.578 981.679C476.554 975.118 456.551 984.446 449.991 1002.47C443.429 1020.5 452.759 1040.49 470.783 1047.05C488.81 1053.62 508.81 1044.29 515.37 1026.27ZM458.198 1005.39C463.135 991.831 478.131 984.841 491.694 989.777C505.257 994.714 512.251 1009.71 507.315 1023.27C502.378 1036.83 487.382 1043.82 473.819 1038.89C460.256 1033.95 453.263 1018.95 458.198 1005.39Z" fill="#4A4A4A"/>
</g>
<g clip-path="url(#clip13_28_113)">
<path d="M99.1467 950.32C74.1606 945.976 48.9661 956.469 34.708 977.128C29.562 984.59 27.6583 989.365 4.62969 1053.39C-16.597 1112.17 -17.0453 1113.55 -17.7208 1118.44C-21.2006 1144.85 -10.175 1168.58 12.4091 1183.32C15.3618 1185.22 19.4054 1186.86 45.738 1196.61C72.9795 1206.74 75.8261 1207.73 76.8239 1207.26C77.8218 1206.79 81.2967 1197.4 120.137 1090.69C148.931 1011.58 162.347 974.262 162.254 973.454C162.085 972.399 161.274 972.049 132.676 961.695C109.442 953.294 102.415 950.902 99.1467 950.32ZM100.682 1083.44L64.7167 1182.25L44.9551 1174.78C26.7365 1167.93 24.8211 1167.12 21.5005 1164.87C7.26916 1155.1 0.0149822 1138.76 2.48103 1121.82C3.20096 1116.5 47.3672 995.158 50.1488 990.702C58.0634 978.062 71.7101 970.16 86.4012 969.707C93.78 969.466 96.8616 970.256 117.754 977.805L136.647 984.626L100.682 1083.44Z" fill="#4A4A4A"/>
<path d="M85.8557 999.887C82.5701 999.354 77.0358 999.991 73.7496 1001.28C67.0131 1003.85 62.187 1009.22 59.8789 1016.78C58.6716 1020.7 58.5427 1021.82 58.9673 1025.51C59.5377 1031.07 61.7402 1035.79 65.619 1039.86C68.3009 1042.66 69.0591 1043.15 73.249 1044.84C77.0488 1046.39 78.4676 1046.74 81.3721 1046.81C93.2516 1047.1 103.386 1039.13 105.416 1027.94C107.881 1014.64 99.034 1001.92 85.8557 999.887Z" fill="#4A4A4A"/>
<path d="M186.707 981.692C186.458 981.767 167.069 1034.58 143.601 1099.06C104.885 1205.43 101.011 1216.23 101.636 1216.79C102.775 1217.76 140.693 1231.34 145.553 1232.55C166.171 1237.52 188.016 1231.82 204.042 1217.39C206.095 1215.54 209.107 1212.27 210.806 1210.18C217.216 1202.13 216.231 1204.53 241.74 1134.45C262.102 1078.51 265.04 1070.13 265.653 1066.32C270.073 1039.15 257.687 1012.94 233.825 999.283C230.624 997.456 225.41 995.392 208.437 989.214C196.732 984.954 186.924 981.55 186.707 981.692ZM200.132 1106.88C207.013 1111.65 211.143 1119.72 210.981 1128.06C210.922 1133.23 208.424 1139.94 205.287 1143.55C199.508 1150.17 191.684 1153.46 183.446 1152.72C170.099 1151.46 159.806 1139.37 160.648 1125.98C160.924 1121.88 163.245 1115.65 165.849 1112.29C173.856 1101.68 189.093 1099.27 200.132 1106.88Z" fill="#4A4A4A"/>
</g>
<g clip-path="url(#clip14_28_113)">
<path d="M1629.37 218.164C1628.79 219.758 1628.49 221.113 1628.45 222.171C1628.45 223.244 1628.51 224.435 1628.7 225.775C1628.79 226.198 1628.75 226.574 1628.64 226.876C1628.49 227.307 1628.07 227.643 1627.35 227.87L1623.98 228.691C1623.5 228.808 1623.06 228.796 1622.72 228.671C1622.29 228.514 1621.93 228.142 1621.64 227.597C1621.28 226.731 1621.01 225.854 1620.83 225.007C1620.66 224.118 1620.53 223.142 1620.42 221.979C1615.61 224.719 1610.67 225.163 1605.58 223.312C1601.96 221.994 1599.45 219.908 1598.09 217.072C1596.73 214.235 1596.65 211.085 1597.91 207.638C1599.24 203.976 1601.62 201.474 1605.06 200.191C1608.51 198.908 1612.41 199.059 1616.85 200.675C1618.31 201.208 1619.77 201.886 1621.29 202.682C1622.81 203.478 1624.32 204.419 1625.9 205.435L1627.05 202.29C1628.24 199.015 1628.38 196.481 1627.53 194.659C1626.64 192.821 1624.54 191.328 1621.22 190.119C1619.72 189.57 1618.1 189.178 1616.36 188.985C1614.63 188.792 1612.9 188.701 1611.18 188.755C1610.38 188.806 1609.8 188.79 1609.46 188.766C1609.13 188.742 1608.9 188.707 1608.73 188.644C1608.12 188.425 1607.98 187.884 1608.31 186.979L1609.08 184.868C1609.33 184.179 1609.6 183.693 1609.93 183.47C1610.25 183.247 1610.75 183.087 1611.46 183.005C1613.25 182.778 1615.3 182.791 1617.6 183.043C1619.92 183.252 1622.25 183.809 1624.62 184.672C1629.75 186.539 1633.08 189.067 1634.65 192.273C1636.17 195.462 1636.09 199.434 1634.37 204.173L1629.29 218.132L1629.37 218.164ZM1609.49 218.342C1610.91 218.86 1612.47 219.135 1614.21 219.183C1615.95 219.231 1617.67 218.785 1619.31 217.916C1620.3 217.349 1621.14 216.632 1621.78 215.692C1622.41 214.752 1623.04 213.566 1623.57 212.101L1624.23 210.291C1623.09 209.535 1621.85 208.79 1620.53 208.115C1619.22 207.441 1617.91 206.868 1616.57 206.382C1613.69 205.331 1611.37 205.122 1609.52 205.768C1607.68 206.413 1606.39 207.799 1605.61 209.953C1604.87 211.978 1604.84 213.674 1605.54 215.101C1606.18 216.554 1607.5 217.621 1609.49 218.342ZM1642.41 235.595C1641.63 235.312 1641.16 234.995 1640.93 234.567C1640.68 234.183 1640.6 233.47 1640.64 232.558L1642.63 195.567C1642.68 194.611 1642.76 194.004 1642.87 193.702C1643.12 193.013 1643.6 192.751 1644.29 193.002L1648.52 194.54C1649.34 194.838 1649.85 195.171 1650.04 195.582C1650.29 195.966 1650.33 196.664 1650.29 197.576L1647.15 228.734L1664.26 202.66C1664.79 201.877 1665.25 201.411 1665.69 201.278C1666.13 201.145 1666.79 201.192 1667.57 201.475L1671.02 202.73C1671.84 203.028 1672.35 203.361 1672.59 203.788C1672.84 204.172 1672.92 204.885 1672.79 205.767L1669.1 237.112L1687.06 210.96C1687.64 210.193 1688.14 209.742 1688.54 209.594C1688.98 209.461 1689.6 209.492 1690.37 209.775L1694.38 211.234C1695.07 211.485 1695.34 211.971 1695.07 212.703C1694.99 212.919 1694.87 213.118 1694.73 213.361C1694.6 213.604 1694.38 213.917 1694.04 214.328L1671.53 243.851C1670.96 244.618 1670.45 245.068 1670.01 245.201C1669.57 245.334 1668.95 245.303 1668.22 245.036L1664.51 243.687C1663.69 243.389 1663.18 243.055 1662.94 242.628C1662.71 242.201 1662.61 241.531 1662.75 240.607L1666.18 210.386L1649.44 235.715C1648.92 236.499 1648.45 236.965 1648 237.141C1647.54 237.317 1646.89 237.226 1646.12 236.944L1642.41 235.595ZM1697.38 256.92C1695.14 256.104 1692.99 255.029 1691.02 253.728C1689.06 252.426 1687.58 251.254 1686.69 250.2C1686.15 249.561 1685.83 248.958 1685.8 248.507C1685.77 248.057 1685.84 247.595 1685.98 247.207L1686.78 245.01C1687.11 244.105 1687.61 243.8 1688.25 244.035C1688.51 244.129 1688.76 244.266 1688.98 244.447C1689.21 244.627 1689.54 244.941 1689.9 245.27C1691.14 246.449 1692.54 247.547 1694.1 248.504C1695.7 249.476 1697.32 250.26 1699.04 250.888C1701.76 251.876 1704.04 252.171 1705.85 251.757C1707.66 251.342 1708.94 250.246 1709.58 248.48C1710.02 247.273 1709.99 246.141 1709.52 245.04C1709.04 243.939 1707.84 242.673 1705.98 241.215L1700.43 237.001C1697.65 234.865 1695.85 232.553 1695.13 230.096C1694.4 227.683 1694.44 225.305 1695.25 223.065C1695.91 221.255 1696.88 219.802 1698.16 218.706C1699.43 217.61 1700.91 216.78 1702.55 216.303C1704.2 215.783 1705.93 215.584 1707.85 215.694C1709.76 215.805 1711.65 216.249 1713.54 216.939C1714.49 217.284 1715.47 217.688 1716.37 218.163C1717.31 218.653 1718.16 219.154 1719 219.656C1719.78 220.186 1720.52 220.699 1721.21 221.24C1721.89 221.781 1722.4 222.259 1722.73 222.674C1723.21 223.239 1723.52 223.74 1723.63 224.222C1723.77 224.661 1723.72 225.182 1723.51 225.785L1722.77 227.81C1722.44 228.715 1721.92 229.063 1721.27 228.828C1720.93 228.702 1720.43 228.326 1719.82 227.715C1717.78 225.7 1715.22 224.136 1712.16 223.022C1709.7 222.128 1707.62 221.809 1705.99 222.142C1704.35 222.474 1703.21 223.472 1702.57 225.239C1702.13 226.445 1702.18 227.636 1702.75 228.768C1703.31 229.901 1704.61 231.3 1706.62 232.864L1712.04 237.03C1714.78 239.151 1716.52 241.346 1717.22 243.598C1717.91 245.851 1717.82 248.112 1717 250.352C1716.33 252.204 1715.33 253.744 1714.06 254.942C1712.76 256.124 1711.25 257.04 1709.54 257.588C1707.81 258.178 1705.93 258.373 1703.87 258.259C1701.72 258.156 1699.58 257.72 1697.38 256.92Z" fill="#4A4A4A"/>
<path fill-rule="evenodd" clip-rule="evenodd" d="M1697.91 280.824C1679.91 286.131 1657.29 284.189 1639.57 277.74C1614.74 268.702 1595.7 251.382 1584.36 229.98C1583.46 228.288 1585.26 227.09 1586.51 228.618C1600.93 245.869 1621.14 260.495 1644.46 268.983C1660.2 274.71 1678.68 277.727 1697.03 276.796C1699.79 276.582 1700.86 279.947 1697.91 280.824Z" fill="#4A4A4A"/>
<path fill-rule="evenodd" clip-rule="evenodd" d="M1706.26 276.252C1705.3 273.267 1694.68 270.77 1689.87 269.651C1688.42 269.321 1688.65 268.037 1690.23 267.587C1700.4 264.85 1713.13 271.335 1713.99 273.796C1714.83 276.299 1708.01 288.89 1698.1 292.505C1696.57 293.072 1695.64 292.148 1696.63 291.043C1699.91 287.406 1707.24 279.194 1706.26 276.252Z" fill="#4A4A4A"/>
</g>
<g clip-path="url(#clip15_28_113)">
<path d="M453.168 865.261C453.239 864.892 453.312 864.528 453.379 864.162C453.806 861.895 454.139 859.622 454.39 857.352C454.823 853.384 454.995 849.42 454.908 845.489C454.837 842.161 454.581 838.854 454.151 835.584C453.595 831.383 452.754 827.239 451.634 823.181C450.261 818.207 448.468 813.364 446.282 808.706C445.365 806.749 444.38 804.824 443.325 802.94C441.044 798.849 438.441 794.934 435.547 791.228C435.6 791.185 435.649 791.138 435.701 791.095C438.499 788.75 441.3 786.411 444.097 784.066C446.831 781.777 449.564 779.489 452.298 777.201C454.264 775.559 456.229 773.913 458.187 772.269C458.652 771.879 459.063 771.45 459.423 770.988C460.424 769.701 461.002 768.176 461.144 766.614C461.177 766.226 461.186 765.839 461.167 765.451C461.148 765.063 461.103 764.675 461.03 764.291C460.781 762.977 460.206 761.705 459.302 760.6C458.504 759.623 457.496 758.846 456.366 758.317C455.89 758.097 455.396 757.922 454.887 757.793C454.468 757.688 454.039 757.616 453.602 757.575C452.043 757.435 450.44 757.736 449.002 758.492C448.485 758.765 447.988 759.092 447.522 759.483C445.559 761.125 443.594 762.771 441.634 764.414L433.432 771.279C430.635 773.625 427.834 775.964 425.037 778.309C424.732 778.565 424.424 778.82 424.118 779.08C423.895 778.881 423.675 778.684 423.451 778.489C415.302 771.431 405.753 765.716 395.02 761.81C394.727 761.703 394.436 761.597 394.139 761.494C384.562 758.116 374.788 756.44 365.149 756.309C364.035 756.294 362.923 756.304 361.814 756.333C361.749 755.966 361.68 755.597 361.619 755.232C360.983 751.637 360.341 748.045 359.706 744.45C359.083 740.94 358.46 737.429 357.836 733.919C357.385 731.398 356.939 728.874 356.495 726.356C356.387 725.757 356.219 725.188 355.998 724.647C355.383 723.143 354.348 721.882 353.065 720.987C352.703 720.738 352.328 720.517 351.937 720.327C351.467 720.1 350.975 719.916 350.47 719.779C349.266 719.454 347.994 719.4 346.751 719.639C345.349 719.905 344.097 720.512 343.057 721.357C342.755 721.604 342.468 721.872 342.207 722.158C341.943 722.443 341.696 722.743 341.477 723.063C340.581 724.351 340.044 725.891 339.981 727.519C339.962 728.105 339.999 728.697 340.104 729.295C340.555 731.816 341.002 734.34 341.445 736.858C342.071 740.369 342.694 743.88 343.318 747.39C343.953 750.984 344.592 754.576 345.228 758.171C345.231 758.2 345.24 758.232 345.244 758.261C340.996 759.156 336.833 760.346 332.773 761.827C330.339 762.715 327.948 763.702 325.604 764.792C320.938 766.956 316.454 769.515 312.2 772.44C308.731 774.828 305.421 777.457 302.299 780.324C299.868 782.553 297.546 784.921 295.352 787.425C292.759 790.38 290.343 793.527 288.125 796.846C286.857 798.746 285.657 800.699 284.521 802.712C284.337 803.036 284.157 803.365 283.978 803.691C283.334 804.863 282.717 806.054 282.123 807.263L452.275 869.194C452.597 867.885 452.89 866.576 453.152 865.265L453.168 865.261Z" fill="#4A4A4A"/>
<path d="M420.035 830.772C424.266 829.742 426.672 824.671 425.408 819.446C424.146 814.222 419.693 810.822 415.464 811.853C411.233 812.884 408.826 817.954 410.091 823.179C411.352 828.403 415.806 831.803 420.035 830.772Z" fill="#242424"/>
<path d="M344.159 799.199C348.486 796.009 349.902 790.577 347.323 787.068C344.744 783.559 339.149 783.302 334.822 786.492C330.498 789.683 329.082 795.114 331.658 798.622C334.237 802.131 339.834 802.389 344.159 799.199Z" fill="#242424"/>
</g>
<g clip-path="url(#clip16_28_113)">
<path d="M508.222 558.163L508.477 557.463C483.901 533.454 464.608 523.261 426.785 509.495L271.993 453.155L268.171 463.656L476.895 539.625C490.904 544.724 500.136 552.048 508.222 558.163Z" fill="#4A4A4A"/>
<path d="M552.183 245.602L547.918 237.707C544.925 235.033 541.104 236.813 541.104 236.813L531.17 237.954L514.608 283.459C499.833 297.902 476.463 298.909 474.553 299.8C470.286 300.625 468.821 302.471 467.547 305.971L405.885 475.388C399.071 474.494 389.011 471.625 389.011 471.625L442.01 326.01C444.048 320.41 442.202 318.945 437.108 315.505C431.569 311.11 420.872 305.631 389.801 277.674L400.758 247.571L394.072 241.966C394.072 241.966 390.634 238.336 386.877 237.762C383.566 238.142 378.344 239.413 375.734 240.048C365.035 243.29 346.695 250.092 339.051 271.094L275.095 446.812L289.804 452.165L354.015 275.748C359.62 260.346 371.974 256.915 378.151 255.199L380.252 255.963L306.614 458.284L321.323 463.637L382.985 294.22C392.854 304.155 399.539 309.759 412.274 318.358C415.712 321.988 420.806 325.428 423.607 326.447L372.137 467.862C353.352 464.989 337.815 464.09 323.424 464.402L354.242 475.619C380.223 473.976 408.177 477.808 434.793 487.495C431.1 484.565 425.496 482.526 421.294 480.996L481.683 315.08L483.593 314.189C488.56 313.619 496.392 311.713 505.945 307.261L434.09 504.681C437.082 507.356 444.596 508.505 449.69 511.945L540.655 262.02L542.056 262.53C546.193 275.135 548.101 291.685 540.712 311.988L465.544 518.508C471.148 520.548 475.541 523.732 480.89 526.472L556.821 317.851C567.142 285.138 556.766 259.163 552.183 245.602Z" fill="#4A4A4A"/>
</g>
<g clip-path="url(#clip17_28_113)">
<path fill-rule="evenodd" clip-rule="evenodd" d="M1481.32 943.444C1482.67 948.134 1502.82 963.394 1534.02 983.007C1565.52 1001.82 1591.4 1040.26 1621.66 1042.32C1642.13 1043.71 1679.59 1003.32 1682.17 996.23L1682.44 995.502C1684.24 990.555 1681.97 985.232 1676.87 979.636C1655.85 957.039 1652.73 950.4 1642.2 949.549C1587.5 945.18 1502.3 906.228 1481.32 943.444Z" fill="#242424"/>
<path fill-rule="evenodd" clip-rule="evenodd" d="M1446.07 1040.32C1447.39 1045.07 1467.56 1060.27 1498.76 1079.9C1534.08 1100.56 1558.79 1135.02 1589.07 1137.07C1609.54 1138.46 1644.33 1100.2 1646.91 1093.1L1647.17 1092.41C1648.96 1087.47 1646.7 1082.14 1641.6 1076.55C1625.71 1058.91 1603.88 1037.9 1593.36 1037.05C1538.59 1032.62 1470.94 1011.41 1446.07 1040.32Z" fill="#242424"/>
<path fill-rule="evenodd" clip-rule="evenodd" d="M1473.47 964.165L1473.22 964.863C1473.29 964.625 1473.37 964.392 1473.47 964.165Z" fill="#555555"/>
<path fill-rule="evenodd" clip-rule="evenodd" d="M1673.6 904.594C1623.02 901.16 1547.68 882.192 1508.55 867.952L1481.36 942.667C1481.28 942.928 1481.29 943.209 1481.38 943.466C1508.08 953.183 1593.69 974.454 1648.4 978.878C1657.87 979.827 1667.41 980.098 1676.92 979.687C1684 979.165 1688.98 977.714 1690.07 974.717L1717.49 899.362C1714.85 906.441 1694.07 905.996 1673.6 904.594Z" fill="#4A4A4A"/>
<path fill-rule="evenodd" clip-rule="evenodd" d="M1638.34 1001.48C1608.07 999.412 1568.95 991.833 1534.02 983.007C1510.57 977.091 1489 970.609 1473.27 964.885L1446.1 1039.54C1446.02 1039.8 1446.03 1040.08 1446.12 1040.34C1472.82 1050.06 1558.43 1071.33 1613.13 1075.77C1622.61 1076.71 1632.14 1076.98 1641.66 1076.58C1648.74 1076.04 1653.71 1074.6 1654.8 1071.61L1682.23 996.251C1679.59 1003.32 1658.81 1002.87 1638.34 1001.48Z" fill="#4A4A4A"/>
<path fill-rule="evenodd" clip-rule="evenodd" d="M1603.05 1098.43C1572.78 1096.36 1533.67 1088.77 1498.74 1079.95C1475.25 1074.03 1453.66 1067.54 1437.93 1061.81L1410.52 1137.11C1436.95 1146.72 1522.95 1168.22 1577.81 1172.63C1598.03 1174.26 1617.21 1174.72 1619.48 1168.46L1646.91 1093.1C1644.31 1100.26 1623.55 1099.76 1603.05 1098.43Z" fill="#4A4A4A"/>
</g>
<g clip-path="url(#clip18_28_113)">
<path d="M1009.35 319.684C1055.6 336.516 1104.19 319.659 1117.88 282.033C1131.58 244.407 1105.19 200.261 1058.94 183.429C1012.7 166.597 964.108 183.454 950.413 221.08C936.718 258.706 963.106 302.853 1009.35 319.684Z" fill="#4A4A4A"/>
<path d="M1051.31 204.391L1016.98 298.722M1018.96 195.583C1015.92 203.922 1016.32 213.124 1020.06 221.164C1023.81 229.204 1030.59 235.424 1038.92 238.455C1047.24 241.486 1056.44 241.08 1064.47 237.327C1072.51 233.573 1078.72 226.78 1081.76 218.44M986.534 284.673C989.569 276.334 995.788 269.54 1003.82 265.786C1011.86 262.033 1021.05 261.627 1029.38 264.658C1037.71 267.689 1044.49 273.909 1048.23 281.949C1051.97 289.989 1052.37 299.191 1049.33 307.531" stroke="#242424" stroke-width="12.46"/>
</g>
<g clip-path="url(#clip19_28_113)">
<path fill-rule="evenodd" clip-rule="evenodd" d="M1295.99 825.621C1205.41 792.652 1105.33 839.785 1072.11 931.066C1045.55 1004.03 1069.99 1082.87 1127.12 1128.42C1134.66 1133.03 1139.53 1128.92 1141.12 1124.55C1142.52 1120.72 1147.02 1107.51 1152 1093.84C1102.85 1087.1 1104.1 1054.13 1104.1 1054.13C1103.74 1032.33 1094.68 1023.46 1094.68 1023.46C1083.45 1007.92 1099.45 1013.75 1099.45 1013.75C1115.59 1020.86 1118.5 1039.87 1118.5 1039.87C1124 1070.34 1150.18 1071.83 1161.26 1070.91C1166.5 1060.74 1173.52 1054.94 1179.63 1052.52C1144.67 1035.47 1111.61 1007.34 1134.69 943.937C1141.25 925.9 1153.13 913.511 1167.61 905.786C1167.48 901.095 1167.95 882.075 1185.16 862.651C1185.16 862.651 1200.58 863.312 1224.01 895.98C1238.67 897.226 1253.11 900.4 1266.95 905.419C1280.78 910.453 1294.18 917.5 1305.91 925.791C1344.86 915.826 1357.1 925.233 1357.1 925.233C1357.8 951.174 1345.93 966.046 1342.81 969.552C1349.21 984.88 1350.08 1001.91 1343.51 1019.94C1320.43 1083.35 1277.12 1083.37 1239.02 1074.14C1243.1 1081.5 1244.67 1093.22 1239 1108.79C1230.94 1130.93 1224.2 1148.6 1222.22 1154.06C1220.62 1158.43 1221.72 1164.72 1230.45 1166.04C1303.5 1167.86 1372.89 1123.18 1399.45 1050.21C1432.94 959.025 1386.3 858.491 1295.99 825.621Z" fill="#4A4A4A"/>
</g>
<g clip-path="url(#clip20_28_113)">
<path d="M869.05 1159.63C878.476 1141.01 878.816 1137.89 892.169 1146.33L895.732 1147.99C906.698 1152.56 922.122 1155.56 932.141 1154.7C953.705 1152.85 969.848 1142.53 950.291 1139.67C905.683 1133.13 907.946 1118.04 907.946 1118.04C975.43 1068.95 1023.79 993.054 1015.34 967.091C992.285 896.275 908.16 895.175 906.665 895.397L906.24 895.326C898.662 890.64 889.857 886.284 879.611 882.366C860.947 875.223 844.795 875.271 831.003 879.539C831.003 879.539 717.829 776.194 678.926 902.35C670.65 929.187 644.098 1115.54 706.594 1079.08C729.439 1065.74 750.676 1055.17 750.676 1055.17C756.455 1063.01 764.642 1068.92 774.554 1071.47L775.523 1071.11C774.428 1073.4 773.685 1075.76 773.11 1078.66C757.358 1087.11 759.848 1090.5 735.783 1086.96C711.433 1083.39 721.713 1096.55 729.608 1101.88C739.181 1108.35 762.188 1120.95 787.049 1103.89L785.436 1106.28C788.549 1111.39 780.334 1133.04 775.3 1148.81C770.266 1164.58 766.026 1179.47 766.081 1189.17C766.136 1198.87 761.855 1222.26 793.574 1226.66C820.083 1230.34 841.645 1229.59 869.05 1159.63Z" fill="#242424" stroke="#242424" stroke-width="49.8604"/>
<path d="M950.295 1139.67C905.683 1133.13 907.947 1118.04 907.947 1118.04C975.433 1068.94 1023.8 993.046 1015.35 967.087C992.289 896.274 908.16 895.175 906.668 895.398L906.241 895.324C898.663 890.637 889.857 886.284 879.607 882.362C860.943 875.221 844.796 875.269 831.004 879.535C831.004 879.535 717.826 776.192 678.923 902.347C670.646 929.186 644.093 1115.54 706.591 1079.08C729.437 1065.74 750.671 1055.17 750.671 1055.17C756.451 1063.01 764.638 1068.92 774.545 1071.47L775.518 1071.11C774.424 1073.4 773.684 1075.76 773.107 1078.66C757.353 1087.1 759.843 1090.5 735.779 1086.96C711.428 1083.39 721.708 1096.55 729.605 1101.88C739.179 1108.35 762.188 1120.95 787.045 1103.89L785.431 1106.28C788.539 1111.39 784.576 1131.87 777.674 1149.22C770.771 1166.58 766.042 1178.5 766.075 1189.17C766.108 1199.83 761.848 1222.26 793.573 1226.66C820.082 1230.34 837.797 1221.31 847.865 1199.17C855.02 1183.43 856.995 1186.86 862.447 1172.44L867.226 1166.41C877.853 1145.41 878.217 1137.52 892.168 1146.32L895.731 1147.99C906.697 1152.55 922.129 1155.56 932.144 1154.7C953.704 1152.85 969.847 1142.53 950.294 1139.67L950.295 1139.67Z" fill="#242424"/>
<path d="M791.841 1096.25C775.824 1136.71 762.276 1178.38 762.632 1189.83C762.991 1201.29 764.47 1223.86 796.197 1228.26C822.704 1231.94 835.365 1224.99 847.446 1203.87C856.338 1188.34 878.603 1144.32 882.743 1135.14" stroke="#4A4A4A" stroke-width="16.6201" stroke-linecap="round" stroke-linejoin="round"/>
<path d="M831.131 878.548C831.131 878.548 717.719 775.567 678.817 901.723C670.54 928.561 643.987 1114.92 706.485 1078.46C729.329 1065.12 749.153 1055.35 749.153 1055.35" stroke="#4A4A4A" stroke-width="16.6201" stroke-linecap="round" stroke-linejoin="round"/>
<path d="M906.721 894.799C901.582 894.567 991.319 892.981 1015.24 966.466C1023.69 992.425 975.329 1068.32 907.843 1117.42" stroke="#4A4A4A" stroke-width="16.6201" stroke-linecap="round" stroke-linejoin="round"/>
<path d="M907.842 1117.42C907.842 1117.42 905.58 1132.52 950.195 1139.05C969.744 1141.91 953.597 1152.23 932.039 1154.08C914.349 1155.6 879.765 1145.05 882.745 1135.14C890.437 1109.57 906.949 1124.2 907.842 1117.42ZM907.842 1117.42C908.642 1111.31 902.038 1102.62 901.37 1086.71C900.786 1072.82 871.174 957.155 952.028 1002.16C955.411 1002.65 959.374 912.302 879.501 881.738C799.645 851.18 765.825 952.299 765.825 952.299" stroke="#4A4A4A" stroke-width="16.6201" stroke-linecap="round" stroke-linejoin="bevel"/>
<path d="M773.001 1078.04C757.246 1086.48 759.74 1089.88 735.673 1086.34C711.321 1082.77 721.604 1095.93 729.499 1101.26C739.072 1107.73 762.081 1120.33 786.941 1103.26C794.511 1098.06 793.545 1085.02 787.698 1079.66C784.872 1077.07 781.051 1073.72 773.001 1078.04Z" stroke="#4A4A4A" stroke-width="16.6201" stroke-linecap="round" stroke-linejoin="round"/>
<path d="M772.348 1077.56C773.898 1069.79 780.631 1062.32 788.159 1053.46C799.465 1040.16 818.235 1029.58 825.445 976.983C830.815 937.786 767.651 947.384 765.824 952.299C763.999 957.213 759.118 978.14 747.357 1000.3C732.01 1029.21 746.266 1063.58 774.441 1070.85" stroke="#4A4A4A" stroke-width="16.6201" stroke-linecap="round" stroke-linejoin="round"/>
<path d="M799.573 963.746C798.723 965.342 800.405 971.04 804.512 973.214C808.61 975.388 813.583 973.224 814.43 971.628C815.276 970.031 812.638 966.971 808.531 964.794C804.43 962.618 800.413 962.151 799.574 963.746L799.573 963.746Z" fill="#4A4A4A" stroke="#4A4A4A" stroke-width="5.54"/>
<path d="M932.335 1008.18C931.956 1009.95 927.009 1013.23 922.465 1012.26C917.924 1011.29 915.506 1006.44 915.881 1004.67C916.265 1002.9 920.254 1002.25 924.795 1003.23C929.336 1004.2 932.711 1006.42 932.334 1008.18L932.335 1008.18Z" fill="#4A4A4A" stroke="#4A4A4A" stroke-width="2.77"/>
<path d="M952.028 1002.16C947.936 1015.62 941.11 1023.32 935.547 1037.21C927.45 1057.39 929.338 1084.55 905.153 1102.26" stroke="#4A4A4A" stroke-width="16.6201" stroke-linecap="round" stroke-linejoin="round"/>
</g>
<g clip-path="url(#clip21_28_113)">
<path d="M1327.57 416.058L1268.5 289.341C1265.1 282.044 1256.43 278.887 1249.13 282.29L1222.82 294.566L1238.37 327.944C1244.76 328.094 1250.81 331.754 1253.69 337.938C1256.59 344.158 1255.47 351.2 1251.42 356.192L1266.42 388.363C1272.84 388.472 1278.96 392.138 1281.85 398.361C1285.9 407.048 1282.15 417.368 1273.46 421.421C1264.77 425.475 1254.45 421.72 1250.4 413.028C1247.36 406.491 1248.73 399.022 1253.31 394.003L1239.32 364L1218.25 421.888C1219.53 423.222 1220.62 424.782 1221.44 426.542C1225.49 435.227 1221.74 445.545 1213.05 449.607C1204.36 453.657 1194.04 449.9 1190 441.217C1185.95 432.521 1189.71 422.203 1198.39 418.152C1200.54 417.153 1202.79 416.626 1205.02 416.536L1226.29 358.109C1224.63 356.608 1223.25 354.765 1222.25 352.608C1219.18 346.031 1220.59 338.527 1225.22 333.502L1209.89 300.594L1123.02 341.121C1115.72 344.529 1112.56 353.207 1115.96 360.507L1175.03 487.221C1178.43 494.519 1187.1 497.675 1194.4 494.273L1320.51 435.452C1327.81 432.045 1330.96 423.364 1327.56 416.065" fill="#4A4A4A"/>
</g>
<g clip-path="url(#clip22_28_113)">
<path d="M1186 553.636L1166.5 607.197L1222.64 597.318L1242.16 543.7L1186 553.636Z" fill="#4A4A4A"/>
<path d="M1144.27 508.072L1180.9 551.783L1161.41 605.344L1124.76 561.662L1144.27 508.072Z" fill="#4A4A4A"/>
<path d="M1103.67 459.424L1084.16 513.014L1120.81 556.696L1140.31 503.106L1103.67 459.424ZM1103.12 621.137L1139.76 664.819L1159.27 611.229L1122.62 567.547L1103.12 621.137Z" fill="#4A4A4A"/>
</g>
<g clip-path="url(#clip23_28_113)">
<path d="M799.024 230.68C802.465 225.811 800.771 222.342 795.366 220.375L785.076 216.63C784.029 216.353 782.893 216.705 782.228 217.576L768.98 236.198C768.55 236.806 768.662 237.647 769.27 238.077C769.382 238.153 769.524 238.239 769.647 238.284L772.381 239.279C773.243 239.489 774.159 239.265 774.838 238.643L779.495 232.06L783.323 233.488L782.693 241.05C782.338 241.929 782.734 242.943 783.591 243.359L787.615 244.824C788.332 245.05 789.109 244.637 789.335 243.919C789.346 243.889 789.346 243.889 789.358 243.858L789.938 234.713C793.434 235.046 796.878 233.517 799.024 230.68ZM793.143 228.297C792.04 230.086 789.817 230.842 787.843 230.054L782.345 228.053L786.485 222.221L791.983 224.222C793.259 224.443 794.105 225.655 793.884 226.931C793.828 227.467 793.557 227.925 793.143 228.297ZM823.816 236.052C824.833 236.317 825.897 235.974 826.539 235.165L827.411 233.917C827.841 233.308 827.73 232.468 827.121 232.037C826.979 231.951 826.867 231.875 826.714 231.819L811.51 226.286C810.524 226.031 809.513 226.324 808.851 227.092L795.526 245.929C795.095 246.538 795.249 247.359 795.857 247.789C795.969 247.864 796.092 247.909 796.215 247.954L811.51 253.521C812.546 253.828 813.641 253.496 814.337 252.637L815.186 251.45C815.647 250.853 815.535 250.012 814.938 249.551C814.796 249.464 814.653 249.378 814.53 249.333L803.535 245.331L806.826 240.685L816.009 244.028L816.02 243.997C817.056 244.305 818.151 243.973 818.816 243.101L819.612 241.965C820.104 241.379 820.034 240.519 819.448 240.027C819.317 239.91 819.205 239.834 819.051 239.778L809.806 236.414L812.905 232.011L823.816 236.052ZM754.521 196.604L845.7 229.826L849.519 224.398L758.156 191.11C754.677 190.156 750.974 191.348 748.694 194.17L722.674 230.3C720.998 232.229 721.229 235.131 723.127 236.796C723.633 237.223 724.183 237.528 724.808 237.721L724.797 237.751L816.621 271.207L820.44 265.78L728.8 232.391L754.521 196.604ZM875.169 277.491C882.703 279.92 890.919 277.032 895.277 270.409C899.487 264.29 898.738 257.269 891.091 254.485C883.546 252.087 875.341 254.944 870.952 261.556C866.68 267.653 867.491 274.696 875.169 277.491ZM876.941 263.736C880.352 258.855 884.393 257.787 887.895 259.061C892.348 260.682 891.615 264.798 889.257 268.218C886.922 271.577 882.788 274.525 878.335 272.904C873.605 271.182 874.776 266.913 876.941 263.736ZM875.273 249.493L858.349 243.334C857.313 243.026 856.196 243.42 855.573 244.271L854.724 245.458C854.294 246.066 854.436 246.918 855.044 247.348C855.095 247.401 855.187 247.435 855.248 247.457L860.838 249.492L849.711 265.442C849.219 266.028 849.289 266.889 849.875 267.38C850.006 267.498 850.149 267.584 850.333 267.651L853.036 268.635C854.033 268.859 855.066 268.504 855.697 267.725L866.858 251.683L872.448 253.718C873.445 253.941 874.52 253.567 875.132 252.747L875.928 251.61C876.389 251.013 876.289 250.142 875.691 249.681C875.538 249.625 875.426 249.549 875.273 249.493ZM843.869 256.359C846.774 252.199 843.748 249.428 839.451 246.995L837.405 245.832C835.327 244.659 834.671 243.69 835.51 242.534C836.836 241.278 838.738 240.926 840.447 241.583C842.22 242.159 843.705 243.43 844.475 245.136L844.506 245.148C844.679 246.011 845.542 246.603 846.447 246.41C846.477 246.422 846.488 246.391 846.519 246.402L849.555 245.803C850.44 245.568 851.071 244.789 851.128 243.871C849.785 240.773 847.172 238.396 843.964 237.368C838.684 234.959 832.437 236.546 828.939 241.186C826.69 244.402 827.642 247.427 831.654 249.687L836.113 252.249C837.721 253.182 838.276 254.045 837.491 255.151C836.178 257.038 832.83 256.585 831.233 256.004C829.306 255.372 827.709 254.026 826.839 252.213L826.808 252.202C826.78 252.087 826.772 252.015 826.702 251.92C826.643 251.794 826.554 251.657 826.495 251.531C826.013 251.043 825.326 250.827 824.681 250.975L821.919 251.396C820.941 251.597 820.215 252.446 820.198 253.448C821.454 256.688 824.106 259.149 827.44 260.119C831.924 261.751 839.338 262.884 843.869 256.359ZM759.799 207.43C758.752 207.153 757.646 207.515 756.961 208.345L743.633 226.902C743.172 227.5 743.283 228.34 743.881 228.801C744.023 228.888 744.166 228.975 744.288 229.019L747.022 230.014C748.038 230.28 749.072 229.925 749.745 229.127L753.69 223.641L758.389 225.351C766.651 228.359 771.614 224.565 773.668 221.695C776.732 217.384 776.488 213.469 769.996 211.141L759.799 207.43ZM767.606 219.523C766.321 221.525 763.765 222.334 761.545 221.457L756.478 219.612L761.218 212.99L766.133 214.778C767.618 214.902 768.699 216.234 768.575 217.72C768.494 218.421 768.145 219.093 767.606 219.523ZM918.819 249.691L855.804 226.72L851.985 232.148L914.907 255.084L890.058 291.153L826.798 268.094L823.01 273.532L886.864 296.774C890.151 297.587 893.614 296.482 895.754 293.853L921.176 256.879C922.671 254.78 922.202 251.861 920.114 250.336C919.729 250.057 919.29 249.827 918.819 249.691Z" fill="#4A4A4A"/>
</g>
<g clip-path="url(#clip24_28_113)">
<path d="M1040.93 347.901L1077.06 361.052L1084.3 410.716L1048.04 444.291L1011.91 431.14L1048.17 397.565L1040.93 347.901Z" fill="#4A4A4A"/>
<path d="M945.423 360.168L909.163 393.743L916.036 443.017L952.168 456.167L945.295 406.894L981.329 373.236L945.423 360.168Z" fill="#4A4A4A"/>
<path d="M996.685 378.826L960.425 412.401L996.557 425.551L1032.82 391.976L996.685 378.826Z" fill="#4A4A4A"/>
</g>
<g clip-path="url(#clip25_28_113)">
<path d="M603.598 766.551L538.892 743L515.341 807.706L580.047 831.257L603.598 766.551Z" fill="#4A4A4A"/>
<path d="M675.403 792.686L610.697 769.135L587.146 833.841L651.852 857.392L675.403 792.686Z" fill="#4A4A4A"/>
<path d="M577.461 838.362L512.755 814.811L489.204 879.517L553.91 903.067L577.461 838.362Z" fill="#4A4A4A"/>
<path d="M649.266 864.497L584.56 840.946L561.009 905.651L625.715 929.202L649.266 864.497Z" fill="#4A4A4A"/>
</g>
<g clip-path="url(#clip26_28_113)">
<path d="M801.324 652.93C801.369 651.518 800.677 649.354 798.215 647.578C781.423 635.451 764.057 625.824 747.619 618.065C746.852 617.701 746.066 617.373 745.311 617.04C758.8 618.216 773.271 621.233 786.396 624.188C787.68 624.476 789.276 623.856 788.201 621.658C787.359 619.966 785.701 618.831 783.259 618.19C770.31 614.783 755.61 612.477 742.484 611.709C742.313 611.688 742.158 611.696 742.001 611.702C743.054 611.126 744.467 610.531 745.926 609.908C756.234 605.495 755.418 599.921 751.054 596.062C745.229 590.924 736.806 588.885 731.159 589.437C729.324 589.617 729.209 591.218 730.847 592.869C732.202 594.226 735.001 594.828 736.865 594.943C740.244 595.156 742.461 595.92 744.622 597.797C747.432 600.236 746.023 602.484 739.899 604.726C734.873 606.621 730.673 608.738 732.63 613.163C734.424 617.249 739.921 620.52 744.265 622.727C760.757 631.063 780.251 641.73 798.105 654.512C799.786 655.709 801.252 654.937 801.324 652.93Z" fill="#4A4A4A"/>
<path d="M796.492 662.111C780.334 649.762 757.479 636.423 744.123 630.814C724.655 622.681 711.259 623.393 701.537 641.883C687.916 667.762 678.911 692.791 670.032 721.326C668.94 724.905 670.6 728.49 674.438 729.65C678.208 730.785 681.789 728.981 683.023 725.253C691.248 700.257 700.607 670.349 712.31 647.137C715.017 641.753 717.802 638.385 720.789 636.432C736.853 658.244 747.619 679.371 756.978 704.496C758.819 709.427 761.816 709.671 764.152 708.145C767.14 706.198 766.976 702.93 765.769 699.363C757.159 673.957 745.628 653.484 730.312 634.377C733.688 634.768 737.342 636.03 741.362 637.647C754.039 642.772 777.036 656.087 794.712 668.794C796.384 670.003 798.051 669.535 798.72 667.525C799.403 665.44 798.398 663.574 796.492 662.111Z" fill="#4A4A4A"/>
<path d="M647.709 730.124C651.55 730.484 655.559 728.151 656.147 724.02C659.204 702.71 662.978 680.069 667.878 660.011C669.778 652.197 669.793 644.734 661.524 639.927C654.718 635.991 643.591 635.839 631.791 638.177C603.017 643.866 573.282 656.962 549.994 677.909C547.167 680.451 546.868 683.777 547.466 686.387C548.384 690.523 550.801 690.976 553.056 688.874C575.98 667.526 606.095 652.715 634.771 646.981C644.816 644.972 650.198 645.756 652.337 646.952C656.022 648.999 656.388 652.869 654.704 659.377C649.544 679.357 644.598 701.808 641.572 722.797C641.03 726.597 642.934 729.672 647.709 730.124Z" fill="#4A4A4A"/>
<path d="M675.335 607.61C675.451 603.659 669.332 601.222 656.589 597.595C643.821 593.948 631.096 591.318 615.629 589.57C612.26 589.203 609.786 589.62 607.835 590.969C605.567 592.545 606.305 594.014 608.85 594.288C622.723 595.823 641.832 599.413 655.011 603.698C655.409 603.832 655.78 603.957 656.117 604.074C627.834 603.082 598.448 606.007 571.703 615.682C568.837 616.729 567.671 618.022 566.904 619.895C565.994 622.092 566.604 623.441 568.641 622.703C596.696 612.542 631.626 609.612 658.104 609.758C657.388 610.071 656.5 610.343 655.381 610.61C616.254 619.503 580.446 629.491 547.626 659.735C545.419 661.792 544.926 663.983 545.299 665.941C545.709 668.119 547.401 668.824 548.947 667.407C582.854 636.13 617.437 626.455 659.495 616.122C673.087 612.787 675.245 610.765 675.335 607.61Z" fill="#4A4A4A"/>
<path d="M691.446 600.58C711.228 606.696 716.321 602.855 722.317 598.659C723.026 598.159 723.735 597.716 724.428 597.315C725.976 596.452 725.755 594.512 723.591 593.134C721.656 591.908 718.784 591.437 716.621 592.587C716.18 592.827 715.727 593.09 715.259 593.362C710.572 596.197 706.122 600.056 692.397 595.566C673.267 589.314 656.342 585.281 641.292 582.665C637.35 581.978 634.906 582.732 633.504 583.427C631.89 584.215 631.172 585.564 633.768 586.031C652.913 589.462 670.018 593.956 691.446 600.58Z" fill="#4A4A4A"/>
</g>
<g clip-path="url(#clip27_28_113)">
<path d="M605.701 490.13L661.828 279.451L861.358 352.073L768.972 549.431L678.93 542.364" fill="#4A4A4A"/>
<path d="M685.411 525.069L755.497 332.511L837.058 362.197L758.126 530.633" fill="#4A4A4A"/>
<path d="M683.716 334.649L746.413 357.469L737.309 382.482L702.001 369.631L694.986 396.091L727.984 408.102L718.9 433.06L663.023 412.722M659.551 425.685L684.63 434.812L679.11 455.453L704.321 473.114L694.816 499.23L648.773 466.249" fill="#242424"/>
<path d="M808.89 380.209L746.303 357.429L737.199 382.442L797.476 404.381M785.896 429.18L727.874 408.062L718.77 433.075L749.568 444.285L734.822 475.73L704.212 473.074L694.746 499.079L751.067 503.481" fill="#242424"/>
</g>
</g>
<defs>
<clipPath id="clip0_28_113">
<rect width="1728" height="1117" fill="white"/>
</clipPath>
<clipPath id="clip1_28_113">
<rect width="249" height="119" fill="white" transform="translate(40.7004 251) rotate(20)"/>
</clipPath>
<clipPath id="clip2_28_113">
<rect width="429" height="169" fill="white" transform="translate(561.801 -69) rotate(20)"/>
</clipPath>
<clipPath id="clip3_28_113">
<rect width="370" height="145.75" fill="white" transform="translate(49.8494 425) rotate(20)"/>
</clipPath>
<clipPath id="clip4_28_113">
<rect width="123" height="123" fill="white" transform="translate(1373.07 394) rotate(20)"/>
</clipPath>
<clipPath id="clip5_28_113">
<rect width="200" height="184" fill="white" transform="translate(1486.93 626) rotate(20)"/>
</clipPath>
<clipPath id="clip6_28_113">
<rect width="322.524" height="322.524" fill="white" transform="translate(6.30972 579) rotate(20)"/>
</clipPath>
<clipPath id="clip7_28_113">
<rect width="162.28" height="162.28" fill="white" transform="translate(573.503 108) rotate(20)"/>
</clipPath>
<clipPath id="clip8_28_113">
<rect width="306.639" height="306.639" fill="white" transform="translate(884.877 527) rotate(20)"/>
</clipPath>
<clipPath id="clip9_28_113">
<rect width="138.442" height="127.367" fill="white" transform="translate(860.562 442) rotate(20)"/>
</clipPath>
<clipPath id="clip10_28_113">
<rect width="479" height="102" fill="white" transform="translate(1343.89 -51) rotate(20)"/>
</clipPath>
<clipPath id="clip11_28_113">
<rect width="192.379" height="260.7" fill="white" transform="translate(1429.16 112) rotate(20)"/>
</clipPath>
<clipPath id="clip12_28_113">
<rect width="278.525" height="278.525" fill="white" transform="translate(345.261 855) rotate(20)"/>
</clipPath>
<clipPath id="clip13_28_113">
<rect width="251.078" height="251.078" fill="white" transform="translate(48.8738 931) rotate(20)"/>
</clipPath>
<clipPath id="clip14_28_113">
<rect width="139.46" height="83.4443" fill="white" transform="translate(1602.54 176) rotate(20)"/>
</clipPath>
<clipPath id="clip15_28_113">
<rect width="181.312" height="105.867" fill="white" transform="translate(318.208 708) rotate(20)"/>
</clipPath>
<clipPath id="clip16_28_113">
<rect width="268.332" height="320.35" fill="white" transform="translate(369.566 172) rotate(20)"/>
</clipPath>
<clipPath id="clip17_28_113">
<rect width="209.032" height="329.806" fill="white" transform="translate(1522.8 827) rotate(20)"/>
</clipPath>
<clipPath id="clip18_28_113">
<rect width="181" height="145" fill="white" transform="translate(972.593 152) rotate(20)"/>
</clipPath>
<clipPath id="clip19_28_113">
<rect width="349.682" height="342.632" fill="white" transform="translate(1132.19 766) rotate(20)"/>
</clipPath>
<clipPath id="clip20_28_113">
<rect width="379.897" height="391.277" fill="white" transform="translate(699.825 795) rotate(20)"/>
</clipPath>
<clipPath id="clip21_28_113">
<rect width="226.527" height="228.599" fill="white" transform="translate(1154.19 243) rotate(20)"/>
</clipPath>
<clipPath id="clip22_28_113">
<rect width="159.566" height="183.673" fill="white" transform="translate(1103.82 459) rotate(20)"/>
</clipPath>
<clipPath id="clip23_28_113">
<rect width="196.438" height="55.565" fill="white" transform="translate(739.004 184) rotate(20)"/>
</clipPath>
<clipPath id="clip24_28_113">
<rect width="170.384" height="132.096" fill="white" transform="translate(939.31 310.915) rotate(20)"/>
</clipPath>
<clipPath id="clip25_28_113">
<rect width="145.875" height="145.875" fill="white" transform="translate(538.892 743) rotate(20)"/>
</clipPath>
<clipPath id="clip26_28_113">
<rect width="240.076" height="164.052" fill="white" transform="translate(591.109 536) rotate(20)"/>
</clipPath>
<clipPath id="clip27_28_113">
<rect width="213.037" height="241.561" fill="white" transform="translate(661.619 279) rotate(20)"/>
</clipPath>
</defs>
</svg>
